<?xml version="1.0" encoding="UTF-8"?> <svg xmlns="http://www.w3.org/2000/svg" width="25" height="25" viewBox="0 0 25 25" fill="none"><g clip-path="url(#clip0)"><path d="M12.5067 25C11.0577 25 10.5463 23.5235 10.4446 22.4821C8.82072 22.3171 8.09746 21.1559 7.93839 20.5204C7.9073 20.396 7.93552 20.2644 8.0143 20.1637C8.09288 20.0624 8.214 20.0033 8.34236 20.0033C8.6834 20.0033 9.07192 19.8847 9.49707 19.6507C10.1789 19.2755 10.6424 18.655 10.8406 17.8553V12.4916C10.8406 12.1485 10.7632 11.9091 10.6112 11.7792C10.4031 11.6026 10.0824 11.6518 10.079 11.6526C9.99031 11.668 7.92637 12.0506 7.92637 14.1573C7.92637 14.2855 7.86724 14.4066 7.76596 14.4854C7.66525 14.5645 7.53326 14.5931 7.40871 14.5611C6.77338 14.4024 5.61199 13.6791 5.44758 12.0548C4.40617 11.9534 2.92969 11.4424 2.92969 9.99336C2.92969 8.54435 4.40617 8.03337 5.44758 7.93171C5.61256 6.30779 6.77338 5.58414 7.40871 5.42564C7.53288 5.39341 7.66487 5.42183 7.76596 5.50137C7.86724 5.57995 7.92637 5.70126 7.92637 5.82943C7.92637 7.95097 9.98917 8.31909 10.0771 8.33359C10.224 8.35743 10.6554 8.36906 10.8578 8.15086C11.0521 7.94144 11.0081 7.53288 10.9364 7.22694C10.7523 6.43616 10.2274 5.75161 9.49707 5.34935C9.0723 5.11532 8.68378 4.99668 8.34274 4.99668C8.21457 4.99668 8.09326 4.93755 8.01468 4.83627C7.93591 4.73557 7.90768 4.60358 7.93877 4.4796C8.09784 3.84407 8.82111 2.68288 10.445 2.51789C10.5463 1.47648 11.0577 0 12.5067 0C13.9557 0 14.467 1.47648 14.5685 2.51789C16.1924 2.68288 16.9157 3.84407 17.0748 4.4796C17.1061 4.60396 17.0778 4.73557 16.9991 4.83627C16.9199 4.93755 16.7988 4.99668 16.6706 4.99668C16.3296 4.99668 15.941 5.11532 15.5159 5.34935C14.7856 5.75161 14.2605 6.43578 14.0764 7.22694C14.0053 7.5325 13.961 7.94144 14.1552 8.15086C14.3579 8.36945 14.7898 8.35648 14.9384 8.33321C15.0229 8.31871 17.087 7.93591 17.087 5.82943C17.087 5.70126 17.1461 5.57995 17.2472 5.50137C17.3479 5.42259 17.4805 5.39436 17.6044 5.42564C18.24 5.58414 19.4012 6.30741 19.5658 7.93171C20.607 8.03337 22.0837 8.54435 22.0837 9.99336C22.0837 11.4424 20.607 11.9534 19.5658 12.0548C19.4008 13.6787 18.24 14.4024 17.6044 14.5611C17.4799 14.5924 17.3479 14.5645 17.2472 14.4854C17.1461 14.4066 17.087 14.2855 17.087 14.1573C17.087 12.0358 15.0242 11.6676 14.9363 11.6531C14.93 11.6518 14.609 11.6032 14.4012 11.7792C14.2496 11.9091 14.1722 12.1485 14.1722 12.4916V17.8556C14.37 18.655 14.8338 19.2751 15.5159 19.651C15.941 19.8851 16.3296 20.0037 16.6706 20.0037C16.7988 20.0037 16.9199 20.0628 16.9987 20.1641C17.0773 20.2648 17.1057 20.3968 17.0744 20.521C16.9153 21.1563 16.1921 22.3177 14.5681 22.4825C14.467 23.5235 13.9557 25 12.5067 25V25ZM8.95691 20.7586C9.21555 21.1531 9.76009 21.6688 10.841 21.6688C11.0704 21.6688 11.2566 21.855 11.2576 22.0844C11.2576 22.1056 11.2783 24.1673 12.5067 24.1673C13.735 24.1673 13.7558 22.1056 13.7558 22.0844C13.7566 21.855 13.9427 21.6688 14.1722 21.6688C15.2515 21.6688 15.7965 21.1531 16.0555 20.7586C15.7524 20.6846 15.4381 20.5584 15.114 20.3802C14.2063 19.8805 13.5963 19.0569 13.3503 17.9989C13.3432 17.968 13.3394 17.9363 13.3394 17.9047V12.4916C13.3394 11.8866 13.5189 11.4307 13.8723 11.1362C14.3749 10.7178 15.0095 10.8208 15.0803 10.8328C15.9611 10.9798 17.56 11.7296 17.8677 13.5263C18.2583 13.2616 18.7525 12.7169 18.7525 11.6589C18.7525 11.4294 18.9386 11.2432 19.1685 11.2425C19.1889 11.2425 21.2507 11.2217 21.2507 9.99336C21.2507 8.76503 19.1889 8.74424 19.1685 8.74424C18.9386 8.74329 18.7525 8.55713 18.7525 8.32787C18.7525 7.27139 18.2577 6.72626 17.8677 6.46114C17.5594 8.25691 15.9605 9.00726 15.0736 9.15508C14.9742 9.17187 14.0915 9.29966 13.5502 8.7225C13.1903 8.33912 13.0945 7.77225 13.2658 7.03831C13.5035 6.01768 14.1771 5.13611 15.1144 4.61979C15.4385 4.44126 15.7536 4.31499 16.0568 4.24137C15.7978 3.84655 15.2531 3.33118 14.1722 3.33118C13.9427 3.33118 13.7566 3.14503 13.7558 2.91557C13.7558 2.8944 13.735 0.832748 12.5067 0.832748C11.2783 0.832748 11.2576 2.8944 11.2576 2.91557C11.2566 3.14503 11.0704 3.33118 10.841 3.33118C9.76181 3.33118 9.21669 3.84693 8.95767 4.24137C9.26094 4.31538 9.57527 4.44164 9.89914 4.61979C10.836 5.13573 11.5099 6.01673 11.7479 7.03831C11.919 7.77225 11.8233 8.33912 11.4635 8.7225C10.9222 9.29966 10.0395 9.17225 9.93996 9.15508C9.05304 9.00784 7.45373 8.25691 7.14607 6.46019C6.75507 6.72512 6.26087 7.26967 6.26087 8.32787C6.26087 8.55713 6.07471 8.74329 5.84488 8.74424C5.82447 8.74424 3.76244 8.76503 3.76244 9.99336C3.76244 11.2217 5.82447 11.2425 5.84488 11.2425C6.07471 11.2432 6.26087 11.4294 6.26087 11.6589C6.26087 12.7153 6.75545 13.2603 7.14569 13.5256C7.45373 11.7296 9.05266 10.9793 9.93958 10.8315C10.0033 10.8202 10.6379 10.7178 11.1404 11.1359C11.4944 11.4307 11.6739 11.8866 11.6739 12.4916V17.9047C11.6739 17.9363 11.6701 17.968 11.6631 17.9993C11.4164 19.0577 10.8065 19.8809 9.89914 20.3806C9.57489 20.5587 9.25999 20.6854 8.95691 20.7586V20.7586Z" fill="#CEAC56"></path><path d="M6.67728 10.4099H5.01159C4.78175 10.4099 4.59521 10.2237 4.59521 9.99352C4.59521 9.76331 4.78175 9.57715 5.01159 9.57715H6.67728C6.90711 9.57715 7.09365 9.76331 7.09365 9.99352C7.09365 10.2237 6.90711 10.4099 6.67728 10.4099Z" fill="#CEAC56"></path><path d="M20.0015 10.4099H18.3361C18.1062 10.4099 17.9197 10.2237 17.9197 9.99352C17.9197 9.76331 18.1062 9.57715 18.3361 9.57715H20.0015C20.2314 9.57715 20.4179 9.76331 20.4179 9.99352C20.4179 10.2237 20.2314 10.4099 20.0015 10.4099V10.4099Z" fill="#CEAC56"></path><path d="M12.5067 4.16396C12.2769 4.16396 12.0903 3.97781 12.0903 3.74759V2.0819C12.0903 1.85168 12.2769 1.66553 12.5067 1.66553C12.7365 1.66553 12.9231 1.85168 12.9231 2.0819V3.74759C12.9231 3.97781 12.7365 4.16396 12.5067 4.16396Z" fill="#CEAC56"></path><path d="M12.5067 23.3176C12.2769 23.3176 12.0903 23.1316 12.0903 22.9012V21.2357C12.0903 21.0055 12.2769 20.8193 12.5067 20.8193C12.7365 20.8193 12.9231 21.0055 12.9231 21.2357V22.9012C12.9231 23.1316 12.7365 23.3176 12.5067 23.3176Z" fill="#CEAC56"></path></g><defs><clipPath id="clip0"><rect width="25" height="25" fill="white"></rect></clipPath></defs></svg> 