<?xml version="1.0" encoding="UTF-8"?> <svg xmlns="http://www.w3.org/2000/svg" width="25" height="25" viewBox="0 0 25 25" fill="none"><g clip-path="url(#clip0)"><path d="M16.2202 22.3413L16.9568 22.3413C17.1592 22.3413 17.323 22.1773 17.323 21.9751C17.323 21.7727 17.1592 21.6089 16.9568 21.6089L16.2202 21.6089C16.0178 21.6089 15.854 21.7727 15.854 21.9751C15.854 22.1773 16.0178 22.3413 16.2202 22.3413Z" fill="#CEAC56"></path><path d="M21.7139 21.1996C21.5473 21.0846 21.3192 21.1264 21.2044 21.2929C21.0894 21.4592 21.1312 21.6873 21.2975 21.8023C22.5435 22.6629 23.4305 23.6156 23.9292 24.2676H1.10743C1.55814 23.6792 2.33099 22.8352 3.39987 22.0442C5.62518 20.3976 8.33132 19.5412 11.0745 19.3331C11.0777 19.3329 11.081 19.3331 11.0842 19.3329C12.0384 19.2635 12.9977 19.2606 13.9519 19.3329C13.9567 19.3331 13.9612 19.3331 13.966 19.3333C16.2102 19.5034 18.2503 20.0745 20.0463 21.0384C20.2244 21.134 20.4464 21.067 20.5422 20.8889C20.6377 20.7108 20.5708 20.4887 20.3926 20.393C18.5929 19.4271 16.565 18.8368 14.3454 18.6302V17.6838C14.3454 17.6838 14.7223 17.8354 14.7225 17.8354C15.234 18.0414 15.8295 17.7868 16.0349 17.2762C16.0349 17.2762 16.6458 15.7579 16.6462 15.7572C16.8516 15.2464 16.5964 14.65 16.0868 14.4449L14.3454 13.7442V11.3508H18.4023C18.9585 11.3508 19.4111 10.8982 19.4111 10.342V8.70457C19.4111 8.14838 18.9585 7.69577 18.4023 7.69577H14.3454V6.04153H16.2592C16.8154 6.04153 17.2678 5.5891 17.2678 5.03292V3.39546C17.2678 2.83909 16.8154 2.38667 16.2592 2.38667H14.3454V1.0088C14.3454 0.452614 13.893 0 13.3368 0H11.6993C11.1431 0 10.6905 0.452614 10.6905 1.0088V2.38667H8.77688C8.2207 2.38667 7.76808 2.83928 7.76808 3.39546V5.03273C7.76808 5.5891 8.2207 6.04153 8.77688 6.04153H10.6905V7.69577H9.56671C9.36453 7.69577 9.2005 7.8598 9.2005 8.06198C9.2005 8.26435 9.36453 8.42819 9.56671 8.42819H18.4023C18.5547 8.42819 18.6787 8.55217 18.6787 8.70457V10.342C18.6787 10.4944 18.5547 10.6182 18.4023 10.6182H6.63359C6.48138 10.6182 6.35741 10.4942 6.35741 10.342V8.70457C6.35741 8.55217 6.48138 8.42819 6.63359 8.42819H8.10931C8.31149 8.42819 8.47552 8.26435 8.47552 8.06198C8.47552 7.8598 8.31149 7.69577 8.10931 7.69577H6.63359C6.07741 7.69577 5.62499 8.14838 5.62499 8.70457V10.342C5.62499 10.8982 6.07741 11.3508 6.63359 11.3508H10.6905V12.2734C10.6905 12.2734 10.3136 12.1218 10.3134 12.1218C9.80227 11.916 9.2066 12.1702 9.00118 12.6808L8.38988 14.2C8.18217 14.716 8.43317 15.3048 8.94911 15.5123L10.6905 16.213V18.631C7.91018 18.8911 5.18343 19.803 2.93181 21.4796C0.97239 22.9387 0.131058 24.391 0.0959631 24.4524C-0.0411753 24.6927 0.137925 25 0.414109 25H24.6216C24.9005 25 25.0777 24.6937 24.9399 24.4524C24.9007 24.3834 23.9502 22.7444 21.7139 21.1996V21.1996ZM11.4229 1.0088C11.4229 0.8564 11.5469 0.732422 11.6993 0.732422H13.3368C13.4892 0.732422 13.613 0.8564 13.613 1.0088V2.38667H11.4229V1.0088ZM8.5005 5.03273V3.39546C8.5005 3.24306 8.62448 3.11909 8.77688 3.11909H16.2592C16.4116 3.11909 16.5356 3.24306 16.5356 3.39546V5.03273C16.5356 5.18513 16.4116 5.3091 16.2592 5.3091H8.77688C8.62448 5.3091 8.5005 5.18513 8.5005 5.03273ZM11.4229 7.69577V6.04153H13.6132V7.69577H11.4229ZM13.613 11.3508V13.4493L11.4229 12.5681V11.3508H13.613ZM9.06947 14.4733C9.06947 14.4733 9.67886 12.9589 9.68058 12.9543C9.73704 12.8141 9.9005 12.7451 10.0401 12.8012C10.0401 12.8012 15.8013 15.1194 15.8135 15.1243C15.9535 15.1806 16.0231 15.3435 15.9666 15.4839C15.9666 15.4839 15.357 16.9987 15.3555 17.0029C15.2992 17.1427 15.1354 17.2123 14.996 17.156L9.22263 14.8329C9.0811 14.7758 9.01244 14.6147 9.06947 14.4733V14.4733ZM11.4229 16.5077L13.6132 17.3891V18.576C13.6109 18.5097 11.4229 18.5619 11.4229 18.5766C11.4229 18.5759 11.4229 16.5077 11.4229 16.5077V16.5077Z" fill="#CEAC56"></path></g><defs><clipPath id="clip0"><rect width="25" height="25" fill="white"></rect></clipPath></defs></svg> 