<?xml version="1.0" encoding="UTF-8"?> <svg xmlns="http://www.w3.org/2000/svg" width="25" height="25" viewBox="0 0 25 25" fill="none"><g clip-path="url(#clip0)"><path d="M4.83378 4.65813C4.65221 4.56944 4.43286 4.64478 4.34398 4.82635L2.60486 8.3849C2.36835 8.86898 2.32791 9.4183 2.49137 9.93176L6.84489 23.6187C7.10773 24.445 7.86685 25 8.73374 25H16.272C17.139 25 17.8982 24.445 18.161 23.6187L22.5145 9.93176C22.6778 9.4183 22.6375 8.86898 22.4008 8.3847L18.8021 1.02119C18.4988 0.400925 17.8568 0 17.1661 0H7.83957C7.14892 0 6.50691 0.400925 6.20364 1.02119L5.02414 3.43494C4.93526 3.61671 5.0106 3.83587 5.19237 3.92475C5.37395 4.01344 5.59329 3.93829 5.68217 3.75652L6.86168 1.34296C7.04307 0.971985 7.42682 0.732422 7.83957 0.732422H17.1661C17.5791 0.732422 17.9628 0.971985 18.144 1.34296L21.7428 8.70647C21.8964 9.02042 21.9225 9.37672 21.8166 9.70974L17.4629 23.3967C17.2972 23.9176 16.8186 24.2676 16.272 24.2676H8.73374C8.18709 24.2676 7.70854 23.9176 7.54298 23.3967L3.18927 9.70974C3.08341 9.37672 3.10954 9.02042 3.26289 8.70647L5.00201 5.14812C5.0909 4.96635 5.01555 4.74701 4.83378 4.65813V4.65813Z" fill="#CEAC56"></path><path d="M17.6128 17.5847C17.8054 17.6461 18.0114 17.5395 18.0726 17.3468L20.5903 9.43192C20.6187 9.34208 20.6117 9.2448 20.5703 9.16012L17.164 2.19028C17.1025 2.06459 16.9748 1.98486 16.8349 1.98486H8.17082C8.03082 1.98486 7.90321 2.06459 7.8418 2.19028L4.43527 9.16012C4.39407 9.2448 4.38683 9.34208 4.41544 9.43192L8.65471 22.7595C8.70297 22.9115 8.84411 23.0149 9.00375 23.0149H16.002C16.1615 23.0149 16.3026 22.9115 16.3509 22.7595L17.5727 18.9185C17.6339 18.7257 17.5275 18.5197 17.3347 18.4584C17.1418 18.397 16.936 18.5036 16.8748 18.6965L15.734 22.2825H9.27155L5.15797 9.3499L8.39932 2.71748H16.6063L19.8478 9.3499L17.3747 17.1248C17.3133 17.3175 17.4199 17.5235 17.6128 17.5847V17.5847Z" fill="#CEAC56"></path><path d="M11.879 16.6693H13.1041C13.5782 16.6693 13.9641 16.2834 13.9641 15.8091V10.8877H15.5781C16.0522 10.8877 16.4381 10.5019 16.4381 10.0277V8.8026C16.4381 8.32825 16.0522 7.94239 15.5781 7.94239H13.9641V6.18229C13.9641 5.70812 13.5782 5.32227 13.1041 5.32227H11.879C11.4048 5.32227 11.0189 5.70812 11.0189 6.18229V7.94239H9.40495C8.93078 7.94239 8.54492 8.32825 8.54492 8.8026V10.0277C8.54492 10.5019 8.93078 10.8877 9.40495 10.8877H11.0189V15.8091C11.0188 16.2834 11.4046 16.6693 11.879 16.6693V16.6693ZM9.40495 10.1553C9.33456 10.1553 9.27715 10.0981 9.27715 10.0277V8.8026C9.27715 8.73222 9.33456 8.67481 9.40495 8.67481H11.385C11.5873 8.67481 11.7512 8.51097 11.7512 8.3086V6.18229C11.7512 6.11191 11.8086 6.05469 11.879 6.05469H13.1041C13.1744 6.05469 13.2317 6.11191 13.2317 6.18229V8.3086C13.2317 8.51097 13.3957 8.67481 13.5979 8.67481H15.5781C15.6485 8.67481 15.7057 8.73222 15.7057 8.8026V10.0277C15.7057 10.0981 15.6485 10.1553 15.5781 10.1553H13.5979C13.3957 10.1553 13.2317 10.3193 13.2317 10.5215V15.8091C13.2317 15.8796 13.1744 15.9369 13.1041 15.9369H11.879C11.8086 15.9369 11.7514 15.8796 11.7514 15.8091V10.5215C11.7514 10.3193 11.5873 10.1553 11.3852 10.1553H9.40495Z" fill="#CEAC56"></path></g><defs><clipPath id="clip0"><rect width="25" height="25" fill="white"></rect></clipPath></defs></svg> 