<?xml version="1.0" encoding="UTF-8"?> <svg xmlns="http://www.w3.org/2000/svg" width="25" height="25" viewBox="0 0 25 25" fill="none"><g clip-path="url(#clip0)"><path d="M3.82329 7.26376C4.43478 7.26376 4.93222 6.76633 4.93222 6.15483C4.93222 5.54334 4.43478 5.0459 3.82329 5.0459C3.21179 5.0459 2.71436 5.54334 2.71436 6.15483C2.71436 6.76633 3.21179 7.26376 3.82329 7.26376ZM3.82329 5.77832C4.031 5.77832 4.1998 5.94712 4.1998 6.15483C4.1998 6.36235 4.031 6.53134 3.82329 6.53134C3.61577 6.53134 3.44678 6.36235 3.44678 6.15483C3.44678 5.94712 3.61577 5.77832 3.82329 5.77832Z" fill="#CEAC56"></path><path d="M20.0269 6.15483C20.0269 6.76633 20.5243 7.26376 21.1358 7.26376C21.7473 7.26376 22.2447 6.76633 22.2447 6.15483C22.2447 5.54334 21.7473 5.0459 21.1358 5.0459C20.5243 5.0459 20.0269 5.54334 20.0269 6.15483ZM21.1358 5.77832C21.3433 5.77832 21.5123 5.94712 21.5123 6.15483C21.5123 6.36235 21.3433 6.53134 21.1358 6.53134C20.9281 6.53134 20.7593 6.36235 20.7593 6.15483C20.7593 5.94712 20.9281 5.77832 21.1358 5.77832Z" fill="#CEAC56"></path><path d="M5.50141 15.8766C5.07397 15.4492 4.36024 15.4495 3.93318 15.8766C3.50079 16.309 3.50079 17.0126 3.93318 17.445C4.36062 17.8724 5.07435 17.8721 5.50141 17.445C5.9338 17.0126 5.9338 16.3092 5.50141 15.8766V15.8766ZM4.98356 16.9272C4.83822 17.0723 4.59618 17.0723 4.45103 16.9272C4.30416 16.7803 4.30416 16.5415 4.45103 16.3946C4.59599 16.2495 4.83879 16.2499 4.98356 16.3946C5.13043 16.5415 5.13043 16.7803 4.98356 16.9272Z" fill="#CEAC56"></path><path d="M20.242 15.5596C19.9557 15.5596 19.6694 15.6654 19.4579 15.877C19.0304 16.3044 19.0308 17.0183 19.4579 17.4452C19.8851 17.8726 20.5992 17.872 21.0261 17.4452C21.4585 17.013 21.4585 16.3093 21.0261 15.877C20.8146 15.6652 20.5283 15.5596 20.242 15.5596ZM20.5083 16.9273C20.3629 17.0725 20.1209 17.0725 19.9757 16.9273C19.8304 16.782 19.8306 16.5398 19.9757 16.3948C20.1209 16.2496 20.3631 16.2496 20.5083 16.3948C20.6551 16.5417 20.6551 16.7805 20.5083 16.9273Z" fill="#CEAC56"></path><path d="M2.36458 4.06055C2.29439 4.05045 2.22343 4.0453 2.1521 4.0453C1.48529 4.0453 0.872648 4.49657 0.661886 5.14259C0.424039 5.87215 0.762975 6.65398 1.42521 6.99348C1.09142 7.6561 1.27643 8.48541 1.89403 8.93669C1.94401 8.97331 1.99569 9.00536 2.04815 9.03549C1.7506 9.89113 1.94401 10.8519 2.55417 11.5242C2.06474 12.3117 2.05845 13.2971 2.52765 14.0888C2.45384 14.1397 2.38403 14.1975 2.31899 14.2626C1.79027 14.7913 1.75594 15.6073 2.20474 16.2113C1.61308 16.6515 1.41224 17.4845 1.76605 18.1807C2.03041 18.7006 2.55741 19.0237 3.14163 19.0237C3.30147 19.0237 3.46168 18.9983 3.61408 18.9495C3.81874 19.577 4.40124 20.0108 5.08045 20.0108C5.55252 20.0108 6.01696 19.7948 6.29753 19.4111C6.34025 19.3525 6.37764 19.2911 6.41083 19.2274C6.61815 19.4433 6.86516 19.6234 7.14325 19.7554C7.17777 19.7718 7.21248 19.7872 7.24758 19.8019C7.24758 19.8019 6.65249 23.8379 6.6521 23.8409C6.56341 24.4431 7.04502 25 7.65289 25H9.14272C9.64054 25 10.0708 24.6286 10.1435 24.136L10.5999 21.0405C11.2679 21.146 11.9456 20.9749 12.4796 20.5727C12.9105 20.8971 13.4348 21.0718 13.9721 21.0718C14.1007 21.0718 14.2304 21.0609 14.3595 21.0407L14.8157 24.136C14.8884 24.6284 15.3187 25 15.8165 25H17.3064C17.6007 25 17.8797 24.8722 18.072 24.6494C18.2644 24.4267 18.3501 24.132 18.3071 23.8407L18.0886 22.3577C18.059 22.1577 17.873 22.0196 17.6728 22.049C17.4727 22.0783 17.3344 22.2645 17.364 22.4646L17.5825 23.9475C17.5988 24.0576 17.5488 24.1346 17.5177 24.1709C17.4864 24.2069 17.4176 24.2676 17.3064 24.2676H15.8165C15.6792 24.2676 15.5604 24.165 15.5403 24.029L15.0669 20.8178C15.4436 20.6347 15.7711 20.3522 16.0092 20.0079C16.0094 20.0075 16.0096 20.0069 16.0099 20.0066C16.034 19.9717 16.0582 19.9368 16.0807 19.9005C16.3807 19.9867 16.6901 20.0148 16.9981 19.9837L17.1519 21.0258C17.1812 21.2259 17.3676 21.3646 17.5675 21.3348C17.7676 21.3053 17.9058 21.1191 17.8765 20.919L17.7117 19.8017C17.7468 19.787 17.7815 19.7716 17.816 19.7552C18.0941 19.6234 18.3411 19.4433 18.5484 19.2274C18.5818 19.2909 18.6192 19.3525 18.6617 19.4109C18.8904 19.7237 19.2376 19.9301 19.6387 19.9921C19.7182 20.0045 19.7989 20.0108 19.8788 20.0108C20.5582 20.0106 21.1405 19.5766 21.3452 18.9491C21.498 18.9981 21.658 19.0237 21.8176 19.0235C22.4018 19.0235 22.929 18.7004 23.1932 18.1805C23.5466 17.4852 23.3466 16.6533 22.7543 16.2117C23.2033 15.6075 23.169 14.7913 22.6403 14.2624C22.5752 14.1975 22.5052 14.1396 22.4316 14.0886C22.9008 13.2971 22.8945 12.3117 22.4051 11.5242C23.0152 10.8517 23.2087 9.89113 22.9111 9.0353C22.9636 9.00536 23.0151 8.97331 23.0648 8.93688C23.683 8.48522 23.8678 7.65572 23.5339 6.9931C24.1967 6.65264 24.535 5.87139 24.2974 5.1424C24.0866 4.49638 23.4738 4.0451 22.8072 4.0451C22.736 4.0451 22.6653 4.05025 22.5947 4.06055C22.485 3.31593 21.8834 2.76299 21.1357 2.76299C20.6967 2.76299 20.3081 2.95391 20.04 3.26233C19.85 2.96745 19.5984 2.71149 19.2992 2.51713C18.8269 2.21062 18.2789 2.07748 17.7267 2.12955C17.4759 1.48544 16.9649 0.969505 16.3105 0.716019C15.6561 0.462532 14.9306 0.499535 14.3113 0.806999C13.8445 0.296593 13.1815 0 12.4796 0C11.7777 0 11.1145 0.296593 10.648 0.806999C10.0287 0.499725 9.30313 0.462532 8.64872 0.716019C7.99431 0.969505 7.48333 1.48544 7.23251 2.12975C6.68014 2.07748 6.13216 2.21081 5.66009 2.51732C5.36064 2.71149 5.10925 2.96764 4.91928 3.26233C4.65111 2.95391 4.26258 2.76318 3.82351 2.76318C3.07583 2.76318 2.47425 3.31593 2.36458 4.06055V4.06055ZM5.70606 18.9789C5.5632 19.1746 5.31963 19.2783 5.08045 19.2783C4.59179 19.2783 4.25743 18.8595 4.26925 18.3928C4.27688 18.0931 3.92364 17.9106 3.68351 18.0904C3.61294 18.1435 3.56048 18.1776 3.51127 18.202C3.11493 18.4004 2.62092 18.2461 2.41894 17.8488C2.17575 17.37 2.43286 16.8095 2.93678 16.6595C3.22593 16.5735 3.28888 16.1779 3.03997 16.0069C2.63408 15.7278 2.45517 15.1623 2.83684 14.7804C3.21544 14.4018 3.78803 14.5836 4.06307 14.9836C4.23416 15.2321 4.62993 15.1697 4.71596 14.8806C4.84623 14.4421 5.32669 14.1817 5.76576 14.3082C6.09936 14.4045 6.33777 14.7167 6.34655 15.0658C6.35475 15.3986 5.90118 15.8108 6.17393 16.0988C6.30783 16.2399 6.4793 16.1991 6.65191 16.2233C7.0866 16.284 7.39273 16.7236 7.32483 17.1516C7.243 17.6773 6.72134 17.8919 6.24965 17.7261C5.96565 17.6264 5.68279 17.9087 5.78274 18.1931C5.8741 18.4536 5.87505 18.7477 5.70606 18.9789ZM9.4189 24.029C9.39888 24.165 9.28005 24.2676 9.14272 24.2676H7.65289C7.48409 24.2676 7.3521 24.1142 7.37671 23.9475L7.96112 19.9833C8.26973 20.014 8.58082 19.9856 8.87855 19.9003C8.90049 19.936 8.92414 19.9699 8.9476 20.0043C8.94855 20.0054 8.94932 20.0068 8.95027 20.0081C9.19117 20.3503 9.51523 20.6345 9.89231 20.8178L9.4189 24.029ZM22.5403 17.8488C22.292 18.3372 21.6891 18.4006 21.2757 18.0904C21.0354 17.9102 20.6824 18.0937 20.69 18.3928C20.7018 18.8627 20.3694 19.2783 19.8788 19.2783C19.3003 19.2783 18.9959 18.7077 19.1767 18.1931C19.2887 17.8736 18.9669 17.6422 18.6781 17.7366C18.1914 17.8968 17.6512 17.6088 17.6255 17.0675C17.6018 16.5712 18.0338 16.2006 18.5101 16.2128C18.6474 16.2163 18.7817 16.1369 18.8448 16.0147C18.9539 15.8033 18.7922 15.6347 18.7008 15.4549C18.5007 15.061 18.6604 14.5626 19.0546 14.3623C19.4132 14.1806 19.8941 14.2736 20.1243 14.6147C20.1979 14.7238 20.2147 14.8588 20.2839 14.9702C20.4205 15.1897 20.7499 15.1962 20.8962 14.9836C21.1695 14.5857 21.7467 14.4047 22.1224 14.7804C22.4997 15.1575 22.3191 15.7318 21.9193 16.0067C21.6702 16.1779 21.7337 16.5737 22.0225 16.6595C22.5283 16.81 22.7843 17.3687 22.5403 17.8488V17.8488ZM21.1357 3.4956C21.6689 3.4956 21.9477 4.02908 21.8594 4.50611C21.8045 4.80309 22.1285 5.03864 22.394 4.89483C22.8608 4.64191 23.4337 4.85687 23.601 5.36957C23.77 5.8876 23.3839 6.36234 22.8777 6.43463C22.5819 6.47678 22.4604 6.85654 22.6773 7.06272C23.0519 7.41844 23.0688 8.02593 22.6324 8.34579C22.214 8.65231 21.6744 8.42533 21.4659 7.99141C21.3356 7.72018 20.9359 7.72057 20.8058 7.99141C20.5988 8.42228 20.0447 8.64201 19.6383 8.34484C19.2068 8.02956 19.2255 7.41348 19.5944 7.06272C19.8124 6.85558 19.6905 6.47697 19.394 6.43463C19.3911 6.43425 19.3888 6.43387 19.3861 6.43349C18.9225 6.36559 18.5458 5.92766 18.6491 5.44949C18.772 4.88243 19.4054 4.66728 19.8935 4.90208C20.1496 5.02529 20.4646 4.78783 20.4125 4.5063C20.3228 4.02184 20.596 3.4956 21.1357 3.4956V3.4956ZM6.05892 3.13148C6.4587 2.87209 6.9363 2.78912 7.40379 2.89822C7.60006 2.9438 7.79651 2.8223 7.84324 2.62604C7.97828 2.05746 8.36815 1.61018 8.91327 1.39904C9.4582 1.1879 10.0478 1.2558 10.5305 1.58501C10.6972 1.69868 10.9244 1.65615 11.0386 1.49002C11.3699 1.00861 11.8952 0.732422 12.4796 0.732422C13.064 0.732422 13.5893 1.00861 13.9206 1.49002C14.0349 1.65615 14.262 1.69868 14.4286 1.58501C14.9115 1.2558 15.5011 1.1879 16.046 1.39904C16.5911 1.61018 16.981 2.05746 17.116 2.62604C17.1625 2.8223 17.359 2.9438 17.5555 2.89822C18.023 2.78931 18.5007 2.87209 18.9003 3.13168C19.2376 3.35045 19.4899 3.67851 19.6143 4.05235C18.9459 3.9835 18.2883 4.37336 18.0188 5.02338C18.0186 5.02377 18.0184 5.02434 18.0182 5.02472C17.7132 5.74932 18.0378 6.63433 18.7374 6.99329C18.5912 7.28111 18.5389 7.60593 18.5896 7.92961C18.7685 9.06868 20.2248 9.62849 21.0833 8.8377C21.1008 8.8213 21.1182 8.8047 21.1354 8.78754C21.4198 9.07516 21.789 9.23309 22.1754 9.23367H22.1817H22.184C22.1909 9.23367 22.1976 9.23386 22.2044 9.23386C22.4642 9.92279 22.2657 10.7176 21.6887 11.1988C21.534 11.3279 21.5126 11.5582 21.641 11.7134C22.1518 12.3312 22.1764 13.1962 21.7226 13.8374C21.3555 13.8102 20.9851 13.9286 20.6913 14.1481C20.6736 14.1243 20.6551 14.1016 20.6362 14.0791C20.6356 14.0783 20.6351 14.0778 20.6345 14.077C20.1723 13.5317 19.3549 13.3883 18.7224 13.7096C18.0571 14.0476 17.7245 14.8472 17.9531 15.5577C17.253 15.786 16.7961 16.5359 16.9104 17.2623C16.9104 17.2628 16.9106 17.2636 16.9106 17.2642C17.0128 17.9064 17.5429 18.4364 18.1919 18.5116C18.0195 18.7586 17.7828 18.9602 17.5019 19.0935C17.1112 19.2791 16.634 19.3283 16.2243 19.1755C15.8987 19.0542 15.6973 19.0582 15.5274 19.3905C15.3166 19.803 14.9573 20.0825 14.5304 20.2478C13.9212 20.484 13.1901 20.2797 12.7379 19.8296C12.6004 19.6926 12.3644 19.6869 12.2212 19.8296C11.8071 20.2419 11.24 20.4168 10.6655 20.3094C10.0415 20.1929 9.67106 19.7918 9.37141 19.2665C9.27643 19.1004 9.071 19.042 8.89858 19.1164C8.76201 19.1755 8.61801 19.2186 8.47076 19.2417C8.12725 19.2957 7.77134 19.2427 7.4572 19.0935C7.17643 18.9602 6.93973 18.7586 6.76731 18.5118C6.7696 18.5116 6.7717 18.511 6.77398 18.5108C7.01698 18.4816 7.25349 18.3929 7.453 18.2508C8.44349 17.5449 8.12973 15.9277 7.00573 15.5579C7.14458 15.1257 7.08221 14.6629 6.85791 14.2889C6.34254 13.4293 5.07969 13.2832 4.3856 14.0099C4.37435 14.0217 4.26506 14.1459 4.2683 14.1483C4.23626 14.1243 4.20345 14.102 4.17045 14.0808C3.92402 13.9233 3.63506 13.8329 3.34171 13.8336C3.30681 13.8338 3.27152 13.8348 3.23662 13.8374C2.78286 13.1962 2.80746 12.3312 3.31825 11.7134C3.44661 11.558 3.42544 11.3279 3.27057 11.1988C2.69359 10.7176 2.49504 9.9226 2.75482 9.23367C2.7615 9.23386 2.78248 9.23347 2.78515 9.23347C3.04989 9.23271 3.30662 9.15813 3.53473 9.01737C3.63926 8.9529 3.73672 8.87489 3.82313 8.78754C3.94424 8.9098 4.08558 9.01222 4.24045 9.08775C5.13843 9.52644 6.21837 8.89244 6.36944 7.92961C6.42036 7.60574 6.36791 7.28092 6.22162 6.99291C6.92371 6.63204 7.24148 5.75161 6.94031 5.02338C6.69178 4.4239 6.11328 4.04568 5.49892 4.0453C5.46497 4.0453 5.36216 4.05121 5.34462 4.05293C5.46917 3.67889 5.72151 3.35064 6.05892 3.13148V3.13148ZM3.09986 4.50611C3.01002 4.02145 3.28354 3.4956 3.82351 3.4956C4.35756 3.4956 4.63527 4.02832 4.54677 4.5063C4.49451 4.78878 4.79358 5.02739 5.05947 4.90475C5.15445 4.86107 5.24772 4.81224 5.35129 4.79202C5.75546 4.71325 6.16344 4.98638 6.28837 5.36957C6.45431 5.87807 6.07094 6.36082 5.57312 6.43349C5.57045 6.43387 5.56816 6.43425 5.5653 6.43463C5.26832 6.47717 5.14702 6.85577 5.36464 7.06253C5.57274 7.26032 5.69156 7.52583 5.64598 7.81593C5.5878 8.18672 5.25039 8.50067 4.86892 8.50067C4.54239 8.50067 4.28833 8.27217 4.15348 7.99141C4.02321 7.71999 3.62343 7.72038 3.49315 7.99141C3.27705 8.44193 2.75501 8.65955 2.32643 8.34541C1.89136 8.0267 1.91005 7.41596 2.28199 7.06253C2.50019 6.85539 2.37812 6.47697 2.08133 6.43463C1.99417 6.42223 1.93294 6.40926 1.88068 6.39172C1.4542 6.25267 1.21979 5.79414 1.35826 5.36957C1.47194 5.0209 1.79828 4.77753 2.1521 4.77753C2.29973 4.77753 2.43667 4.82502 2.56523 4.89483C2.83111 5.03883 3.15479 4.80251 3.09986 4.50611Z" fill="#CEAC56"></path><path d="M6.56339 8.79884C6.39612 9.36094 6.30762 9.94669 6.30762 10.5362C6.30762 12.2227 6.98778 13.7532 8.08775 14.8682C9.05916 16.1326 10.9427 16.7084 12.4796 16.7084C15.8375 16.7084 18.6516 13.8928 18.6516 10.5362C18.6516 8.40822 17.5188 6.39482 15.7101 5.27921C14.7425 4.6824 13.6164 4.36426 12.4796 4.36426C11.5774 4.36426 10.7073 4.55499 9.89343 4.93112C9.70995 5.016 9.62984 5.23363 9.71471 5.41711C9.79959 5.60079 10.017 5.6809 10.2007 5.59602C10.9177 5.26472 11.6842 5.09668 12.4796 5.09668C14.4909 5.09668 16.2508 6.19398 17.1919 7.82152H7.76426C8.09538 7.24741 8.53349 6.73128 9.06564 6.30155C9.22319 6.17452 9.2478 5.94392 9.12057 5.78657C8.99355 5.62921 8.76295 5.60461 8.60559 5.73164C7.63074 6.51842 6.91911 7.60484 6.56339 8.79884V8.79884ZM10.6527 15.66C9.94569 15.407 9.30616 15.012 8.7681 14.5091L9.29987 10.9025H11.3541L10.6527 15.66ZM8.132 13.8018C7.51554 12.9834 7.12492 11.9858 7.05263 10.9025H8.55943L8.132 13.8018ZM11.3634 15.8606L12.0943 10.9025H12.8649L13.5958 15.8606C13.2355 15.936 12.862 15.976 12.4796 15.976C12.0972 15.976 11.7239 15.9361 11.3634 15.8606V15.8606ZM16.8272 13.8018L16.3998 10.9025H17.9066C17.8343 11.9858 17.4435 12.9834 16.8272 13.8018ZM16.1911 14.5091C15.6531 15.012 15.0135 15.4072 14.3065 15.66L13.6051 10.9025H15.6593L16.1911 14.5091ZM7.41273 8.55394H17.5451C17.6085 8.7153 17.6645 8.88029 17.7124 9.0489C17.8166 9.41454 17.8812 9.79086 17.9066 10.17H7.05263C7.08944 9.61729 7.21037 9.06988 7.41273 8.55394V8.55394Z" fill="#CEAC56"></path></g><defs><clipPath id="clip0"><rect width="25" height="25" fill="white"></rect></clipPath></defs></svg> 