<?xml version="1.0" encoding="UTF-8"?> <svg xmlns="http://www.w3.org/2000/svg" width="25" height="25" viewBox="0 0 25 25" fill="none"><path d="M9.49927 13.6261C9.70145 13.6261 9.86548 13.462 9.86548 13.2599V12.7188C9.86548 12.5164 9.70145 12.3525 9.49927 12.3525C9.29709 12.3525 9.13306 12.5164 9.13306 12.7188V13.2599C9.13306 13.462 9.2969 13.6261 9.49927 13.6261Z" fill="#CEAC56"></path><path d="M15.4785 13.6261C15.6807 13.6261 15.8447 13.462 15.8447 13.2599V12.7188C15.8447 12.5164 15.6807 12.3525 15.4785 12.3525C15.2761 12.3525 15.1123 12.5164 15.1123 12.7188V13.2599C15.1123 13.462 15.2761 13.6261 15.4785 13.6261Z" fill="#CEAC56"></path><path d="M24.0499 0.36621C24.0499 0.168609 23.8815 0.000381469 23.6837 0C23.6837 0 1.29585 0 1.29394 0C1.09844 0 0.927925 0.17128 0.927734 0.36621V17.7705C0.927734 17.9727 1.09177 18.1368 1.29394 18.1368C1.49612 18.1368 1.66015 17.9727 1.66015 17.7705V8.44725L3.83071 6.27669V21.5791L1.66015 23.7497V19.2354C1.66015 19.0332 1.49612 18.8692 1.29394 18.8692C1.09177 18.8692 0.927734 19.0332 0.927734 19.2354V24.6337C0.927734 24.8321 1.09615 25 1.29394 25H23.6846C23.8945 25 24.0499 24.8176 24.0499 24.6158C24.0499 24.6158 24.0499 0.375175 24.0499 0.36621V0.36621ZM9.37498 0.73242H22.7996L20.6293 2.90298H7.20462L9.37498 0.73242ZM1.66015 1.25026L2.61726 2.20737L1.66015 3.16429V1.25026ZM4.09221 0.73242L3.1351 1.68953L2.17819 0.73242H4.09221ZM1.66015 7.41137V4.20016L5.12809 0.73242H8.33929L1.66015 7.41137ZM6.4722 3.6354H20.4145V5.31939C20.4145 5.52176 20.5785 5.6856 20.7807 5.6856C20.9831 5.6856 21.1469 5.52176 21.1469 5.31939V3.42082L23.3175 1.25026V23.7497L21.1469 21.5791V6.78423C21.1469 6.58206 20.9831 6.41802 20.7807 6.41802C20.5785 6.41802 20.4145 6.58206 20.4145 6.78423V21.3646H17.6979C17.6069 19.9476 17.0011 18.9211 16.4861 18.2932C16.2597 18.017 15.9994 17.7557 15.7289 17.5314C16.9315 16.7549 17.8436 15.5595 18.2621 14.1512C19.1713 14.0922 19.8932 13.3342 19.8932 12.4103C19.8932 11.9301 19.6983 11.4946 19.3834 11.1788C19.104 9.58879 18.2817 8.13349 17.0578 7.06976C15.7873 5.9656 14.1647 5.35754 12.4889 5.35754C10.8131 5.35754 9.19035 5.9656 7.92006 7.06976C6.69612 8.13368 5.87367 9.58879 5.59424 11.1789C5.27934 11.4948 5.08441 11.9303 5.08441 12.4103C5.08441 13.3342 5.80634 14.0922 6.71576 14.1512C7.13385 15.5588 8.04518 16.7535 9.24681 17.53C8.56799 18.09 7.40641 19.3344 7.27938 21.3646H4.56313V5.54427L6.4722 3.6354ZM20.6291 22.097L22.7996 24.2675H2.17819L4.34856 22.097H20.6291ZM6.4741 12.072C6.43882 12.5046 6.47258 12.9415 6.53857 13.3697C6.53914 13.3733 6.53952 13.3772 6.5401 13.3808C6.12239 13.256 5.81683 12.8681 5.81683 12.4103C5.81683 11.9587 6.13212 11.5492 6.56813 11.4324C6.52121 11.6403 6.48955 11.8534 6.47429 12.0699C6.47429 12.0704 6.47429 12.0712 6.4741 12.072ZM6.45102 10.7069C6.78233 9.51746 7.45886 8.44095 8.40052 7.62251C9.53749 6.63413 10.9896 6.08977 12.4889 6.08977C13.9881 6.08977 15.4401 6.63413 16.5771 7.62251C17.5188 8.44095 18.1953 9.51746 18.5266 10.7069C18.5251 10.7065 18.5234 10.7063 18.5218 10.7059C18.4681 10.6941 18.4137 10.6851 18.3591 10.6785C18.2937 10.6705 18.2235 10.6657 18.156 10.6653C17.9485 10.1969 17.6555 9.77266 17.2882 9.41866C16.6332 8.78771 15.7554 8.41234 14.8426 8.41234C14.1069 8.41234 13.3159 8.63398 12.4887 9.07152C11.8168 8.71599 11.1687 8.50294 10.5545 8.43561C9.75722 8.34826 8.95518 8.51954 8.27807 8.95384C7.63568 9.36583 7.13023 9.96836 6.82162 10.6653C6.81247 10.6653 6.80331 10.6659 6.79415 10.6661C6.68048 10.6684 6.5668 10.6815 6.45579 10.7059C6.45427 10.7063 6.45255 10.7065 6.45102 10.7069V10.7069ZM18.4393 13.3688C18.4955 13.0111 18.5203 12.6484 18.5133 12.2865C18.5074 11.9955 18.4721 11.7094 18.4097 11.4322C18.4662 11.4475 18.522 11.4677 18.5751 11.4925C18.9279 11.6569 19.1608 12.021 19.1608 12.4103C19.1608 12.8681 18.8554 13.256 18.4375 13.3808C18.4383 13.3768 18.4387 13.3728 18.4393 13.3688ZM7.33889 13.6459C6.87789 11.6874 7.79036 9.14476 10.1351 9.14476C10.7965 9.14476 11.528 9.36792 12.3091 9.80795C12.4206 9.87089 12.557 9.87089 12.6686 9.80795C13.4498 9.36792 14.1813 9.14476 14.8426 9.14476C16.1499 9.14476 17.2294 10.1223 17.6176 11.3287C17.8581 12.0762 17.8169 12.8881 17.6391 13.6446C17.2212 15.423 15.9204 16.8598 14.2318 17.4562C13.1128 17.8512 11.8669 17.8516 10.7479 17.457C9.05894 16.8613 7.75755 15.4245 7.33889 13.6459V13.6459ZM10.8856 18.2699C11.2093 18.3599 11.5402 18.4217 11.8774 18.4557C11.8789 18.4559 11.8803 18.4559 11.8818 18.456C12.2854 18.497 12.693 18.4963 13.0966 18.456C13.0977 18.456 13.0989 18.4559 13.1 18.4557C13.4372 18.4219 13.7684 18.3601 14.092 18.2701V21.3647H10.8858V18.2699H10.8856ZM14.8245 18.013C14.895 17.9828 14.9652 17.9519 15.0348 17.9191C15.4953 18.2504 16.8171 19.3683 16.9643 21.3647H14.8245V18.013ZM9.94318 17.9193C10.0126 17.9521 10.0828 17.9828 10.1532 18.013V21.3647H8.01314C8.08238 20.4042 8.42684 19.536 9.03986 18.7797C9.39062 18.3469 9.74596 18.0612 9.94318 17.9193Z" fill="#CEAC56"></path></svg> 