<?xml version="1.0" encoding="UTF-8"?> <svg xmlns="http://www.w3.org/2000/svg" width="25" height="25" viewBox="0 0 25 25" fill="none"><g clip-path="url(#clip0)"><path d="M13.1292 2.13672H11.9041C11.4299 2.13672 11.0441 2.52258 11.0441 2.99693V4.75703H9.43009C8.95593 4.75703 8.57007 5.14289 8.57007 5.61706V6.84215C8.57007 7.31651 8.95593 7.70236 9.43009 7.70236H11.0441V11.6471C11.0441 12.1213 11.4299 12.5072 11.9041 12.5072H13.1292C13.6036 12.5072 13.9894 12.1213 13.9894 11.6471V7.70236H15.6032C16.0776 7.70236 16.4634 7.31651 16.4634 6.84215V5.61706C16.4634 5.14289 16.0776 4.75703 15.6032 4.75703H13.9894V2.99693C13.9894 2.52258 13.6036 2.13672 13.1292 2.13672V2.13672ZM15.6032 5.48946C15.6736 5.48946 15.731 5.54668 15.731 5.61706V6.84215C15.731 6.91253 15.6736 6.96994 15.6032 6.96994H13.6232C13.4208 6.96994 13.257 7.13378 13.257 7.33615V11.6471C13.257 11.7175 13.1996 11.7747 13.1292 11.7747H11.9041C11.8337 11.7747 11.7765 11.7175 11.7765 11.6471V7.33615C11.7765 7.13378 11.6125 6.96994 11.4103 6.96994H9.43009C9.35971 6.96994 9.30249 6.91253 9.30249 6.84215V5.61706C9.30249 5.54668 9.35971 5.48946 9.43009 5.48946H11.4103C11.6125 5.48946 11.7765 5.32542 11.7765 5.12325V2.99693C11.7765 2.92655 11.8337 2.86914 11.9041 2.86914H13.1292C13.1996 2.86914 13.257 2.92655 13.257 2.99693V5.12325C13.257 5.32542 13.4208 5.48946 13.6232 5.48946H15.6032Z" fill="#CEAC56"></path><path d="M16.9683 14.144C16.9683 13.9417 16.8043 13.7778 16.6021 13.7778H8.4314C8.22922 13.7778 8.06519 13.9417 8.06519 14.144C8.06519 14.3462 8.22922 14.5103 8.4314 14.5103H16.6019C16.8043 14.5103 16.9683 14.3462 16.9683 14.144V14.144Z" fill="#CEAC56"></path><path d="M9.18018 15.6655C8.97781 15.6655 8.81396 15.8296 8.81396 16.0317C8.81396 16.2341 8.97781 16.3979 9.18018 16.3979H15.8532C16.0556 16.3979 16.2194 16.2341 16.2194 16.0317C16.2194 15.8296 16.0556 15.6655 15.8532 15.6655H9.18018Z" fill="#CEAC56"></path><path d="M1.12305 22.2933V24.6338C1.12305 24.836 1.28689 25 1.48926 25H23.5441C23.7465 25 23.9103 24.836 23.9103 24.6338V22.2933C23.9103 21.6703 23.4035 21.1634 22.7804 21.1634H22.073V19.1891C22.073 18.5659 21.566 18.059 20.9429 18.059H20.401V6.72874C20.401 5.28278 19.9488 3.90434 19.0931 2.74277C18.9732 2.57988 18.7441 2.54498 18.5812 2.66495C18.4183 2.78492 18.3834 3.01418 18.5034 3.17707C19.2657 4.212 19.6686 5.44014 19.6686 6.72894V18.0592H5.3648V6.72874C5.3648 3.42236 8.05492 0.732422 11.3613 0.732422H13.6723C15.0972 0.732422 16.4785 1.2413 17.5615 2.16522C17.7155 2.29645 17.9466 2.27814 18.0779 2.1244C18.2091 1.97048 18.1908 1.73931 18.0368 1.60809C16.8215 0.57106 15.2714 0 13.6723 0H11.3613C7.65095 0 4.63238 3.01857 4.63238 6.72874V18.0592H4.0905C3.46737 18.0592 2.9604 18.5659 2.9604 19.1891V21.1634H2.25296C1.63002 21.1634 1.12305 21.6703 1.12305 22.2933H1.12305ZM3.69301 19.1891C3.69301 18.9699 3.87115 18.7916 4.0905 18.7916H20.9431C21.1622 18.7916 21.3406 18.9699 21.3406 19.1891V21.1634H7.70855C7.50637 21.1634 7.34234 21.3274 7.34234 21.5296C7.34234 21.7318 7.50637 21.8958 7.70855 21.8958H22.7804C22.9996 21.8958 23.1779 22.0741 23.1779 22.2933V24.2676H1.85547V22.2933C1.85547 22.0741 2.03381 21.8958 2.25296 21.8958H6.24371C6.44608 21.8958 6.60992 21.7318 6.60992 21.5296C6.60992 21.3272 6.44608 21.1634 6.24371 21.1634H3.69301V19.1891Z" fill="#CEAC56"></path></g><defs><clipPath id="clip0"><rect width="25" height="25" fill="white"></rect></clipPath></defs></svg> 