<?xml version="1.0" encoding="UTF-8"?> <svg xmlns="http://www.w3.org/2000/svg" width="45" height="31" viewBox="0 0 45 31" fill="none"><path d="M15.3496 30H9.0127V12.6504L9.07422 9.7998L9.17676 6.68262C8.12402 7.73535 7.39258 8.42578 6.98242 8.75391L3.53711 11.5225L0.481445 7.70801L10.1406 0.0175781H15.3496V30ZM34.5859 10.8457C37.4844 10.8457 39.7881 11.6592 41.4971 13.2861C43.2197 14.9131 44.0811 17.1416 44.0811 19.9717C44.0811 23.3213 43.0488 25.8984 40.9844 27.7031C38.9199 29.5078 35.9668 30.4102 32.125 30.4102C28.7891 30.4102 26.0957 29.8701 24.0449 28.79V23.3145C25.125 23.8887 26.3828 24.3604 27.8184 24.7295C29.2539 25.085 30.6143 25.2627 31.8994 25.2627C35.7686 25.2627 37.7031 23.6768 37.7031 20.5049C37.7031 17.4834 35.7002 15.9727 31.6943 15.9727C30.9697 15.9727 30.1699 16.0479 29.2949 16.1982C28.4199 16.335 27.709 16.4854 27.1621 16.6494L24.6396 15.2959L25.7676 0.0175781H42.0303V5.39062H31.3252L30.7715 11.2764L31.4893 11.1328C32.3232 10.9414 33.3555 10.8457 34.5859 10.8457Z" fill="#333333"></path></svg> 