<?xml version="1.0" encoding="UTF-8"?> <svg xmlns="http://www.w3.org/2000/svg" width="439" height="279" viewBox="0 0 439 279" fill="none"><g clip-path="url(#clip0)"><path d="M187.9 269.9C143 269.9 131 269.9 81.9999 269.9C32.9999 269.9 -34.2001 265.5 20.0999 179.3C74.3999 93.1 135.1 40.6 243.6 10C352.1 -20.6 409.9 25.4 425.6 69.3C436.6 100.3 461.5 253 373.3 269.9H187.9Z" fill="#D4B669"></path><path d="M209.4 59C207 37.3 201 34.6 191.4 34.6C181.8 34.6 175.8 37.3 173.4 59C171 80.7 168.5 110.2 168.5 110.2H191.4H214.3C214.4 110.2 211.8 80.7 209.4 59Z" fill="#4C260A"></path><path d="M177.9 53.2C177.9 53.2 176.3 52.5 176.3 54.5C176.3 56.5 177.2 61.5 179.5 61.7C179.5 61.7 180.6 59.2 180.1 56.6C179.6 53.9 177.9 53.2 177.9 53.2Z" fill="#EF9778"></path><path d="M204.9 53.2C204.9 53.2 206.5 52.5 206.5 54.5C206.5 56.5 205.6 61.5 203.3 61.7C203.3 61.7 202.2 59.2 202.7 56.6C203.2 53.9 204.9 53.2 204.9 53.2Z" fill="#EF9778"></path><path d="M182.7 250L190.5 238.5V185H176.1L182.7 250Z" fill="#EF9778"></path><path d="M190.5 238.5C190.5 241.3 190.3 250 185 250C179.7 250 171.1 250 166 250C160.9 250 166.4 247.5 171.3 245.6C176.3 243.6 180.8 241.2 181.9 238.5H190.5Z" fill="#191F34"></path><path d="M190.5 238.5H188.8V250H190.5V238.5Z" fill="#191F34"></path><path d="M200.2 250L192.4 238.5V185H206.8L200.2 250Z" fill="#EF9778"></path><path d="M192.4 238.5C192.4 241.3 192.6 250 197.9 250C203.2 250 211.8 250 216.9 250C222 250 216.5 247.5 211.6 245.6C206.6 243.6 202.1 241.2 201 238.5H192.4Z" fill="#191F34"></path><path d="M194.1 238.5H192.4V250H194.1V238.5Z" fill="#191F34"></path><path d="M216.1 88.6L208.9 89.9L191.4 93L173 89.7L168 88.8C169.1 86.2 170.2 85.1 171.8 84.4C172.6 84.1 173.4 83.9 174.2 83.6C175.5 83.2 176.7 82.9 178 82.5C183.6 80.9 185.3 79.8 185.3 78V70H197.7V78C197.7 79.8 199.4 80.9 205 82.5C205.4 82.6 205.8 82.7 206.2 82.8C207.9 83.3 209.6 83.8 211.2 84.3C212.7 85 215 85.7 216.1 88.3C216 88.5 216 88.6 216.1 88.6Z" fill="#EF9778"></path><path d="M191.4 36.5C183.9 36.5 177.9 42.5 177.9 50C177.9 56.6 179.6 62.2 180.8 65.8C181.9 69.4 189.3 72.4 191.4 72.4C193.6 72.4 200.9 69.4 202 65.8C203.1 62.2 204.9 56.6 204.9 50C204.9 42.6 198.9 36.5 191.4 36.5Z" fill="#F0B89F"></path><path d="M191.4 52C190.4 52 188.1 61.2 189 61.9C189.9 62.6 190.7 62.6 191.4 62.6C192.1 62.6 192.8 62.6 193.8 61.9C194.7 61.2 192.5 52 191.4 52Z" fill="#EF9778"></path><path d="M186.8 41.2C188.1 45.3 194.3 50.5 198.6 52.1C202.9 53.7 206.3 53 206.3 53C206.3 53 207.7 41.5 199.9 37.8C192 34 186.8 36.5 186.8 36.5C186.8 36.5 179.2 39 178 45.3C176.8 51.6 178 53.2 178 53.2C178 53.2 184.8 48.7 186.8 41.2Z" fill="#4C260A"></path><path d="M166.9 185C166.9 185 167.8 158.1 169.7 142.8C170.3 137.9 171.3 134.2 172.5 131.4C172.7 131 172.8 130.6 173 130.3C174.5 126.8 176.1 124.6 177.1 122.7C177.2 122.5 177.3 122.3 177.4 122.1C177.7 121.4 178 120.7 178 119.9C178.5 115.4 176.7 108.7 176.7 108.7C176.7 108.7 175.6 107.6 174.4 105.8C174.2 105.5 174 105.2 173.8 105C172.4 102.7 171.8 101.8 171.9 98.9C172.2 93.1 176.6 83.2 176.6 83.2H206.2C206.2 83.2 210.6 93.1 210.9 98.9C211.1 101.9 210.5 102.8 209 105C208.8 105.3 208.6 105.6 208.4 105.8C207.2 107.5 206.1 108.7 206.1 108.7C206.1 108.7 204.3 115.3 204.8 119.9C204.9 120.7 205.1 121.4 205.4 122.1C205.5 122.3 205.6 122.5 205.7 122.7C206.7 124.6 208.3 126.8 209.8 130.3C210 130.7 210.1 131 210.3 131.4C211.4 134.3 212.5 137.9 213.1 142.8C215 158.1 215.9 185 215.9 185C198.4 191.7 182 191.7 166.9 185Z" fill="#191F34"></path><path d="M177.3 122C175.2 120.2 173.3 118.6 172.9 118.2C171.5 117 171.1 115.9 172.3 111.9C172.8 110.5 173.6 108.2 174.3 105.7C174.1 105.4 173.9 105.1 173.7 104.9C172.3 102.6 171.7 101.7 171.8 98.8C172.1 93 176.5 83.1 176.5 83.1H176.6C176.6 83 176.6 83 176.6 83C175.8 83.2 174.9 83.4 174.1 83.6C173.2 83.9 172.3 84.1 171.6 84.5C170.1 85.2 167.8 85.9 166.7 88.5C166.3 89.4 166 90.5 165.6 91.8C163.3 100.1 161.2 113.3 160.6 116.2C160 119.2 157.6 122.4 169.9 129.8C170.6 130.2 171.2 130.6 171.8 131C172 131.1 172.1 131.2 172.3 131.3C180.6 136.6 182 137.4 182 137.4L186.6 129.6C186.7 129.7 181.3 125.4 177.3 122Z" fill="#27314C"></path><path d="M212.8 129.9C212.1 130.3 211.5 130.7 210.9 131.1C210.7 131.2 210.6 131.3 210.4 131.4C202.1 136.7 200.7 137.5 200.7 137.5L196.1 129.7C196.1 129.7 201.5 125.4 205.5 122C207.6 120.2 209.5 118.6 209.9 118.2C211.3 117 211.7 115.9 210.5 111.9C210 110.5 209.2 108.2 208.5 105.7C208.7 105.4 208.9 105.1 209.1 104.9C210.5 102.6 211.1 101.7 211 98.8C210.9 96.2 209.9 92.9 208.9 90C207.6 86.2 206.2 83.1 206.2 83.1H206.1C206.1 83 206.1 83 206.1 83C206.9 83.2 207.8 83.4 208.6 83.6C209.5 83.9 210.4 84.1 211.1 84.5C212.6 85.2 214.9 85.9 216 88.5C216 88.5 216 88.6 216.1 88.7C216.5 89.6 216.8 90.6 217.2 91.9C219.5 100.2 221.6 113.4 222.2 116.3C222.7 119.2 225.1 122.4 212.8 129.9Z" fill="#27314C"></path><path d="M196.1 129.7C192.9 131.9 189.3 136.2 189 138.7C188.7 141.2 187.8 145.6 192.4 147.9C193.9 148.7 197.1 150.1 196.6 144.8C196.1 139.5 200.1 136.5 200.1 136.5L196.1 129.7Z" fill="#EF9778"></path><path d="M192.4 137.5C194.1 139.8 197.1 158.4 196.2 159.1C195.3 159.8 188.7 159.5 187.3 159.1C185.9 158.7 186.8 153.7 186.8 153.7C186.8 153.7 182.9 153.2 182.1 152.8C181.2 152.4 184.8 135.8 184.8 135.8C184.8 135.8 190.7 135.1 192.4 137.5Z" fill="#FFFFFB"></path><path d="M186.7 129.7C189.9 131.9 193.5 136.2 193.8 138.7C194.1 141.2 195 145.6 190.4 147.9C188.9 148.7 185.7 150.1 186.2 144.8C186.7 139.5 182.7 136.5 182.7 136.5L186.7 129.7Z" fill="#EF9778"></path><path d="M257.2 48.9C257.2 48.9 255.6 48.2 255.6 50.2C255.6 52.2 256.6 57.3 258.8 57.5C258.8 57.5 259.9 54.9 259.4 52.3C258.9 49.6 257.2 48.9 257.2 48.9Z" fill="#EF9778"></path><path d="M284.6 48.9C284.6 48.9 286.2 48.2 286.2 50.2C286.2 52.2 285.2 57.3 283 57.5C283 57.5 281.9 54.9 282.4 52.3C282.9 49.6 284.6 48.9 284.6 48.9Z" fill="#EF9778"></path><path d="M271.8 237.4C271.8 241 271.8 245.4 271.8 247.3C271.8 249.2 275.2 249.1 284.2 249.1C293.2 249.1 301.9 249.1 306.4 249.1C310.9 249.1 310.3 246.5 299.4 242.1C288.5 237.8 286.5 237.3 286.5 237.3H271.8V237.4Z" fill="#191F34"></path><path d="M269.9 237.4C269.9 241 269.9 245.4 269.9 247.3C269.9 249.2 266.5 249.1 257.5 249.1C248.5 249.1 239.8 249.1 235.3 249.1C230.7 249.1 231.4 246.5 242.3 242.1C253.2 237.8 255.2 237.3 255.2 237.3H269.9V237.4Z" fill="#191F34"></path><path d="M295.9 85L288.6 86.3L270.8 89.5L252 86.1L246.9 85.2C248 82.5 249.2 81.4 250.7 80.7C251.5 80.4 252.3 80.2 253.2 79.9C254.5 79.5 255.8 79.1 257 78.8C262.7 77.2 264.4 76.1 264.4 74.2V66.1H277V74.2C277 76 278.7 77.1 284.4 78.8C284.8 78.9 285.2 79 285.7 79.2C287.4 79.7 289.1 80.2 290.7 80.7C292.3 81.4 294.6 82.1 295.7 84.8C295.9 84.8 295.9 84.9 295.9 85Z" fill="#EF9778"></path><path d="M270.9 31.9C263.3 31.9 257.2 38 257.2 45.6C257.2 52.3 259 58 260.1 61.7C261.3 65.4 268.7 68.4 270.9 68.4C273.1 68.4 280.5 65.4 281.7 61.7C282.9 58 284.6 52.4 284.6 45.6C284.6 38.1 278.5 31.9 270.9 31.9Z" fill="#F0B89F"></path><path d="M270.9 47.7C269.8 47.7 267.5 57.1 268.5 57.8C269.5 58.5 270.2 58.5 270.9 58.5C271.6 58.5 272.4 58.5 273.3 57.8C274.2 57 271.9 47.7 270.9 47.7Z" fill="#EF9778"></path><path d="M279.6 141.5H262.2V77.1C268.8 80.8 274.6 80.8 279.6 77.1V141.5Z" fill="white"></path><path d="M257.2 48.9C257.2 48.9 262.2 44.6 263.4 38.4C263.4 38.4 268.9 42.9 275.5 44.2C282.1 45.5 279 41.5 279 41.5C279 41.5 284.5 46.2 284.7 48.9C284.7 48.9 286.4 44.9 286.3 42.5C286.3 42.5 288.7 42.5 289.6 40.9C290.5 39.3 283.6 29.6 273.6 30C263.6 30.4 261.8 34.4 261.8 34.4C261.8 34.4 258.4 35.7 256.7 39.5C255 43.1 257.2 48.9 257.2 48.9Z" fill="#4C260A"></path><path d="M271.5 77.8C271.5 77.8 271 77.5 270.3 77.8C270.3 77.8 268.2 80.9 268.3 81.6C268.4 82.3 269.7 84.9 270.9 84.9C272.1 84.9 273.5 82.5 273.5 81.3C273.6 80 271.5 77.8 271.5 77.8Z" fill="#191F34"></path><path d="M264.6 71.7L270.3 77.8C270.3 77.8 268.2 83.9 267.5 83.4C266.8 83 262.2 77.1 262.2 77.1C262.2 77.1 262.5 73.4 264.6 71.7Z" fill="#EDEDED"></path><path d="M277.2 71.7L271.5 77.8C271.5 77.8 273.6 83.9 274.3 83.4C275 83 279.6 77.1 279.6 77.1C279.6 77.1 279.3 73.4 277.2 71.7Z" fill="#EDEDED"></path><path d="M244.9 82.3C241.3 84.4 239 86.4 238.1 99.8C237.2 113.2 236.3 144.3 236.3 144.3H246.3L251.1 106.9L244.9 82.3Z" fill="#27314C"></path><path d="M271.5 83.8H270.3C269.9 84.4 266 113.1 266.2 114.7C266.4 116.3 269.1 124.7 270.9 124.7C272.7 124.7 275.3 116.3 275.6 114.7C275.9 113.1 271.9 84.4 271.5 83.8Z" fill="#191F34"></path><path d="M296.9 82.3C300.5 84.4 302.8 86.4 303.7 99.8C304.6 113.2 305.5 144.3 305.5 144.3H295.5L290.7 106.9L296.9 82.3Z" fill="#27314C"></path><path d="M304.9 144.3C304.9 148.4 306.1 157.8 303.8 162.5C301.5 167.2 299.5 168.4 298.7 168C297.9 167.7 296.9 166.3 298.4 162.4C299.9 158.5 298.6 154.2 298.6 154.2C298.6 154.2 297.7 153.3 297.4 156.3C297.1 159.3 297 160.2 296.1 160C295.3 159.8 293.4 156.8 294.4 152.6C295.4 148.4 295.7 144.2 295.7 144.2H304.9V144.3Z" fill="#EF9778"></path><path d="M262.5 75.3C260 76.4 247.8 80 244.9 82.3C242 84.6 244.8 92.3 246.8 115.6C248.8 138.8 248.9 141.5 248.9 141.5H262.1L262.5 75.3Z" fill="#191F34"></path><path d="M279.3 75.3C281.8 76.4 294 80 296.9 82.3C299.8 84.6 297 92.3 295 115.6C293 138.8 292.9 141.5 292.9 141.5H279.7L279.3 75.3Z" fill="#191F34"></path><path d="M248.9 141.5L255.2 237.4H269.9V164.4H271.8V237.4H286.5L292.8 141.5H248.9Z" fill="#27314C"></path><path d="M236.8 144.3C236.8 148.4 235.6 157.8 237.9 162.5C240.2 167.2 242.2 168.4 243 168C243.8 167.7 244.8 166.3 243.3 162.4C241.8 158.5 243.1 154.2 243.1 154.2C243.1 154.2 244 153.3 244.3 156.3C244.6 159.3 244.7 160.2 245.6 160C246.4 159.8 248.3 156.8 247.3 152.6C246.3 148.4 246 144.2 246 144.2H236.8V144.3Z" fill="#EF9778"></path><path d="M333.4 164H94.3V197.7H333.4V164Z" fill="#43210C"></path><path d="M334.7 164H92.9999C91.0999 164 89.5999 162.5 89.5999 160.6V158.1H338V160.6C338 162.5 336.5 164 334.7 164Z" fill="#5E3918"></path><path d="M339.6 158.1H88.1C86.8 158.1 85.7 157 85.7 155.7C85.7 154.4 86.8 153.3 88.1 153.3H339.6C340.9 153.3 342 154.4 342 155.7C342 157 340.9 158.1 339.6 158.1Z" fill="#8B633C"></path><path d="M339.6 203.6H88.1C86.8 203.6 85.7 204.7 85.7 206C85.7 207.3 86.8 208.4 88.1 208.4H339.6C340.9 208.4 342 207.3 342 206C342 204.6 340.9 203.6 339.6 203.6Z" fill="#8B633C"></path><path d="M334.7 197.7H92.9999C91.0999 197.7 89.5999 199.2 89.5999 201.1V203.6H338V201.1C338 199.2 336.5 197.7 334.7 197.7Z" fill="#5E3918"></path><path d="M180.2 179.3H107V182.4H180.2V179.3Z" fill="#623A17"></path><path d="M114 182.4H106.4C105.6 182.4 104.9 181.7 104.9 180.9C104.9 180 105.6 179.4 106.4 179.4H114V182.4Z" fill="#EEA047"></path><path d="M118.1 184.6C117.7 184.6 117.4 184.3 117.4 183.9V177.6C117.4 177.2 117.7 176.9 118.1 176.9C118.5 176.9 118.8 177.2 118.8 177.6V183.9C118.7 184.3 118.4 184.6 118.1 184.6Z" fill="#EEA047"></path><path d="M125.4 184.6C125 184.6 124.7 184.3 124.7 183.9V177.6C124.7 177.2 125 176.9 125.4 176.9C125.8 176.9 126.1 177.2 126.1 177.6V183.9C126 184.3 125.7 184.6 125.4 184.6Z" fill="#EEA047"></path><path d="M165.9 184.6C165.5 184.6 165.2 184.3 165.2 183.9V177.6C165.2 177.2 165.5 176.9 165.9 176.9C166.3 176.9 166.6 177.2 166.6 177.6V183.9C166.6 184.3 166.3 184.6 165.9 184.6Z" fill="#EEA047"></path><path d="M173.2 184.6C172.8 184.6 172.5 184.3 172.5 183.9V177.6C172.5 177.2 172.8 176.9 173.2 176.9C173.6 176.9 173.9 177.2 173.9 177.6V183.9C173.9 184.3 173.6 184.6 173.2 184.6Z" fill="#EEA047"></path><path d="M247.511 182.344H320.711V179.244H247.511V182.344Z" fill="#623A17"></path><path d="M313.6 182.4H321.2C322.1 182.4 322.7 181.7 322.7 180.9C322.7 180 322 179.4 321.2 179.4H313.6V182.4Z" fill="#EEA047"></path><path d="M309.6 184.6C310 184.6 310.3 184.3 310.3 183.9V177.6C310.3 177.2 310 176.9 309.6 176.9C309.2 176.9 308.9 177.2 308.9 177.6V183.9C309 184.3 309.3 184.6 309.6 184.6Z" fill="#EEA047"></path><path d="M302.3 184.6C302.7 184.6 303 184.3 303 183.9V177.6C303 177.2 302.7 176.9 302.3 176.9C301.9 176.9 301.6 177.2 301.6 177.6V183.9C301.7 184.3 302 184.6 302.3 184.6Z" fill="#EEA047"></path><path d="M261.7 184.6C262.1 184.6 262.4 184.3 262.4 183.9V177.6C262.4 177.2 262.1 176.9 261.7 176.9C261.3 176.9 261 177.2 261 177.6V183.9C261.1 184.3 261.4 184.6 261.7 184.6Z" fill="#EEA047"></path><path d="M254.4 184.6C254.8 184.6 255.1 184.3 255.1 183.9V177.6C255.1 177.2 254.8 176.9 254.4 176.9C254 176.9 253.7 177.2 253.7 177.6V183.9C253.8 184.3 254.1 184.6 254.4 184.6Z" fill="#EEA047"></path><path d="M317.5 142.6H110.1L94.3 153.3H333.4L317.5 142.6Z" fill="#43210C"></path><path d="M312 145.6H115.7L110.1 142.6H317.5L312 145.6Z" fill="#513220"></path><path d="M345.7 208.3H82.1001V218H345.7V208.3Z" fill="#BBB8D3"></path><path d="M345.7 213.2H82.1001V218.1H345.7V213.2Z" fill="#A09FBC"></path><path d="M345.6 260.2H82V269.9H345.6V260.2Z" fill="#BBB8D3"></path><path d="M345.6 265.1H82V270H345.6V265.1Z" fill="#A09FBC"></path><path d="M327.9 218.1H99.7V260.2H327.9V218.1Z" fill="#BBB8D3"></path><path d="M99.7 260.2C99.7 260.2 181.4 256.3 228 246.1C274.6 235.9 327.9 218.1 327.9 218.1V260.2H99.7Z" fill="#A09FBC"></path><path d="M327.9 218.1H99.7V221.3H327.9V218.1Z" fill="#7E7E9B"></path><path d="M215.8 229.2H211.8V249.1H215.8V229.2Z" fill="#7E7E9B"></path><path d="M207.46 233.718L207.459 237.718L220.159 237.722L220.16 233.722L207.46 233.718Z" fill="#7E7E9B"></path><path d="M220.212 237.651L220.213 233.651L219.513 233.651L219.512 237.651L220.212 237.651Z" fill="#5B5B72"></path><path d="M215.8 229.2H211.8V229.9H215.8V229.2Z" fill="#5B5B72"></path><path d="M215.869 234.359L215.871 229.159L215.171 229.159L215.169 234.359L215.869 234.359Z" fill="#5B5B72"></path><path d="M215.895 249.091L215.898 237.691L215.198 237.691L215.195 249.091L215.895 249.091Z" fill="#5B5B72"></path><path d="M220.2 233.7H215.9V234.4H220.2V233.7Z" fill="#5B5B72"></path><path d="M122.4 142.6C122.4 142.6 119.1 142 119.1 138.6C119.1 135.2 122.4 133.6 122.4 133.6C122.4 133.6 121.1 131.2 122.7 129.2C124.4 127.2 126.9 128.8 126.9 128.8C126.9 128.8 127.4 125.6 131.5 123.9C135.6 122.3 137.7 124.9 137.7 124.9C137.7 124.9 137.4 123.9 138.5 123.3C139.6 122.7 140.3 123.6 140.3 123.6C140.3 123.6 142.4 121 146.9 121.4C151.4 121.8 152 124.9 152 124.9C152 124.9 154.1 122.4 157.6 123.7C161.1 125 160.8 127.7 160.8 127.7C160.8 127.7 161 126 162.5 126C164 126 164.2 127.7 164.2 127.7C164.2 127.7 167 125.9 170 127.4C173 128.8 172.9 131.7 172.9 131.7C172.9 131.7 174.5 130.8 176.1 132.1C177.7 133.4 176.7 135.3 176.7 135.3C176.7 135.3 178.8 133.9 181.8 135.5C184.8 137.1 183.7 139.7 183.7 139.7C183.7 139.7 189.4 139.1 189.4 142.5H122.4V142.6Z" fill="#54D189"></path><path d="M151.6 138.3C151.6 138.3 149.4 138.2 146.5 136.4C143.6 134.6 142.8 130.9 144.7 129.4C147.4 129 149.6 131.2 150 134.1C150.4 136.9 151.6 138.3 151.6 138.3Z" fill="#3BB282"></path><path d="M151.6 138.3C151.6 138.3 149.4 138.2 146.5 136.4C143.6 134.6 142.8 130.9 144.7 129.4C144.7 129.4 146.1 135.6 151.6 138.3Z" fill="#3E9B6F"></path><path d="M136.8 143.6C136.8 143.6 135.7 143.6 134.3 142.7C132.9 141.8 132.5 140 133.4 139.2C134.7 139 135.8 140.1 136 141.5C136.2 142.9 136.8 143.6 136.8 143.6Z" fill="#3BB282"></path><path d="M136.8 143.6C136.8 143.6 135.7 143.6 134.3 142.7C132.9 141.8 132.5 140 133.4 139.2C133.4 139.2 134.1 142.3 136.8 143.6Z" fill="#3E9B6F"></path><path d="M145.9 143.2C145.9 143.2 144.3 143.2 142.2 142C140 140.8 139.4 138.1 140.7 136.9C142.6 136.5 144.3 138.1 144.7 140.2C145 142.1 145.9 143.2 145.9 143.2Z" fill="#3BB282"></path><path d="M145.9 143.2C145.9 143.2 144.3 143.2 142.2 142C140 140.8 139.4 138.1 140.7 136.9C140.6 136.8 141.8 141.3 145.9 143.2Z" fill="#3E9B6F"></path><path d="M168.5 142.4C168.5 142.4 167.4 142.4 165.8 141.5C164.3 140.6 163.8 138.7 164.7 137.9C166.1 137.6 167.3 138.8 167.5 140.2C167.9 141.7 168.5 142.4 168.5 142.4Z" fill="#3BB282"></path><path d="M168.5 142.4C168.5 142.4 167.4 142.4 165.8 141.5C164.3 140.6 163.8 138.7 164.7 137.9C164.8 137.9 165.6 141.1 168.5 142.4Z" fill="#3E9B6F"></path><path d="M180 144.1C180 144.1 179 144.1 177.7 143.3C176.3 142.5 175.9 140.8 176.7 140.1C177.9 139.9 179 140.9 179.2 142.1C179.4 143.4 180 144.1 180 144.1Z" fill="#3BB282"></path><path d="M180 144.1C180 144.1 179 144.1 177.7 143.3C176.3 142.5 175.9 140.8 176.7 140.1C176.6 140.1 177.4 142.9 180 144.1Z" fill="#3E9B6F"></path><path d="M123.2 143C123.2 143 123 141.9 123.7 140.3C124.4 138.7 126.2 137.9 127.1 138.7C127.5 140 126.6 141.3 125.2 141.8C123.8 142.3 123.2 143 123.2 143Z" fill="#3BB282"></path><path d="M123.2 143C123.2 143 123 141.9 123.7 140.3C124.4 138.7 126.2 137.9 127.1 138.7C127.2 138.7 124.1 140 123.2 143Z" fill="#3E9B6F"></path><path d="M166.4 129.2C166.4 129.2 165.1 129.4 164 130.5C163.1 131.4 160.5 133.2 157.1 131.9C157.1 131.9 157.2 129.4 159.5 128.3C161.8 127.2 164.4 127.9 166.4 129.2Z" fill="#3BB282"></path><path d="M166.4 129.2C166.4 129.2 165.1 129.4 164 130.5C163.1 131.4 160.5 133.2 157.1 131.9C157.1 131.9 160.6 127.1 166.4 129.2Z" fill="#3E9B6F"></path><path d="M181.2 134.4C181.2 134.4 180.4 134.3 179.5 134.8C178.8 135.2 176.9 135.9 175 134.5C175 134.5 175.5 133 177.1 132.7C178.7 132.4 180.1 133.3 181.2 134.4Z" fill="#3BB282"></path><path d="M181.2 134.4C181.2 134.4 180.4 134.3 179.5 134.8C178.8 135.2 176.9 135.9 175 134.5C175 134.5 178 132.2 181.2 134.4Z" fill="#3E9B6F"></path><path d="M187.9 138.7C187.9 138.7 187.1 138.9 186.4 139.6C185.8 140.2 184.2 141.3 182 140.6C182 140.6 182 139 183.5 138.3C185 137.5 186.6 137.9 187.9 138.7Z" fill="#3BB282"></path><path d="M187.9 138.7C187.9 138.7 187.1 138.9 186.4 139.6C185.8 140.2 184.2 141.3 182 140.6C182 140.6 184.2 137.5 187.9 138.7Z" fill="#3E9B6F"></path><path d="M157.4 121.5C157.4 121.5 156.2 122.1 155.3 123.5C154.6 124.6 152.5 127.2 148.8 126.9C148.8 126.9 148.2 124.4 150.2 122.6C152.3 120.8 155 120.8 157.4 121.5Z" fill="#3BB282"></path><path d="M157.4 121.5C157.4 121.5 156.2 122.1 155.3 123.5C154.6 124.6 152.5 127.2 148.8 126.9C148.9 126.9 151.1 121.1 157.4 121.5Z" fill="#3E9B6F"></path><path d="M135.5 124.6C135.5 124.6 134.5 125.2 133.8 126.5C133.3 127.5 131.6 129.9 128.3 129.8C128.3 129.8 127.6 127.6 129.3 126C131 124.3 133.3 124.1 135.5 124.6Z" fill="#3BB282"></path><path d="M135.5 124.6C135.5 124.6 134.5 125.2 133.8 126.5C133.3 127.5 131.6 129.9 128.3 129.8C128.4 129.8 129.9 124.7 135.5 124.6Z" fill="#3E9B6F"></path><path d="M120.8 139.3C120.8 139.3 121.2 138.5 122 138C122.7 137.6 124.3 136.2 124 133.9C124 133.9 122.4 133.5 121.3 134.8C120.3 136.1 120.3 137.8 120.8 139.3Z" fill="#3BB282"></path><path d="M120.8 139.3C120.8 139.3 121.2 138.5 122 138C122.7 137.6 124.3 136.2 124 133.9C124 133.9 120.4 135.3 120.8 139.3Z" fill="#3E9B6F"></path><path d="M155.3 141.1C155.3 141.1 155.7 140.3 156.5 139.8C157.2 139.4 158.8 138 158.5 135.7C158.5 135.7 156.9 135.3 155.8 136.6C154.7 137.9 154.8 139.6 155.3 141.1Z" fill="#3BB282"></path><path d="M155.3 141.1C155.3 141.1 155.7 140.3 156.5 139.8C157.2 139.4 158.8 138 158.5 135.7C158.5 135.6 154.9 137.1 155.3 141.1Z" fill="#3E9B6F"></path><path d="M170.4 141.4C170.4 141.4 170.8 140.6 171.6 140.1C172.3 139.7 173.9 138.3 173.6 136C173.6 136 172 135.6 170.9 136.9C169.9 138.2 169.9 139.9 170.4 141.4Z" fill="#3BB282"></path><path d="M170.4 141.4C170.4 141.4 170.8 140.6 171.6 140.1C172.3 139.7 173.9 138.3 173.6 136C173.7 136 170.1 137.4 170.4 141.4Z" fill="#3E9B6F"></path><path d="M149.9 125.5C149.6 125.9 147.5 126.8 147.5 126.8L144.5 126.4C144.2 125.7 142.5 124.2 142.2 123.6C142 123.2 142.3 122.6 143 122.3C143.7 122 144.8 121.9 146.2 122.3C147.9 122.7 148.9 123.5 149.5 124.2C149.9 124.8 150.1 125.3 149.9 125.5Z" fill="#FFFFFB"></path><path d="M149.9 125.5C149.6 125.9 147.5 126.8 147.5 126.8L144.5 126.4C144.2 125.7 142.5 124.2 142.2 123.6C142 123.2 142.3 122.6 143 122.3C142.6 122.6 143.4 123.8 144.3 124.7C145.2 125.6 146 125.9 146 125.3C146.1 124.7 146.2 123.2 146.2 123.2C146.2 123.2 146.4 124.3 146.4 125C146.4 125.7 147.1 125.9 148.1 125.7C149 125.5 150.1 125.1 149.5 124.2C149.9 124.8 150.1 125.3 149.9 125.5Z" fill="#DFEFEF"></path><path d="M152.4 130.3C150.8 130.6 147.4 128.8 146.7 128.1C146 127.5 146.3 126.7 146.3 126.7C146.3 126.7 146.6 126.5 147.2 126.4C147.8 126.2 148.7 126.1 149.9 126.2C152.1 126.4 152.6 126.8 153.3 127.8C153.4 128 153.5 128.2 153.6 128.4V128.5C153.7 129.2 153.5 130.1 152.4 130.3Z" fill="#FFFFFB"></path><path d="M152.4 130.3C150.8 130.6 147.4 128.8 146.7 128.1C146 127.5 146.3 126.7 146.3 126.7C146.3 126.7 146.6 126.5 147.2 126.4C147 126.5 147.1 126.9 148.2 126.9C149.3 126.9 150.8 127.3 151.4 127.8C151.2 127.7 149.6 127.1 148.5 127.3C147.3 127.5 150.8 129.7 152.1 129.6C153.2 129.5 153.5 128.8 153.5 128.4C153.7 129.2 153.5 130.1 152.4 130.3Z" fill="#DFEFEF"></path><path d="M144.8 126.3V126.4L144.6 127.1C144.6 127.1 138.9 128.8 138.2 128.7C137.6 128.6 136.8 127.8 136.8 127.1C136.8 126.8 136.9 126.4 137.2 125.8C137.6 125 138.5 124.1 140.1 123.9C142.7 123.8 144.7 126.3 144.8 126.3Z" fill="#FFFFFB"></path><path d="M144.8 126.4L144.6 127.1C144.6 127.1 138.9 128.8 138.2 128.7C137.6 128.6 136.8 127.8 136.8 127.1C136.8 126.8 136.9 126.4 137.2 125.8C137.1 127 138.2 127.6 140 127.4C141.8 127.2 143 126.9 143.5 126.6C144 126.3 140.8 125.4 140.8 125.4C140.8 125.4 143.2 125.6 144 126.1C144.6 126.5 144.7 126.5 144.8 126.4Z" fill="#DFEFEF"></path><path d="M146 128.2C146 128.2 145.1 131.1 143.6 132.8C142.2 134.4 139.6 133.9 138.3 133.1C138.3 133.1 138.2 133.1 138.2 133C136.9 132.1 136.8 130.8 138.7 129.2C139.5 128.5 140.7 128 141.8 127.7C143.2 127.3 144.5 127.1 144.5 127.2L146 128.2Z" fill="#FFFFFB"></path><path d="M146 128.2C146 128.2 145.1 131.1 143.6 132.8C142.2 134.4 139.6 133.9 138.3 133.1C138.9 133.5 141.5 133.9 142.3 133.2C143.1 132.5 145.7 128.3 144.6 128.3C143.5 128.3 141 130.5 141 130.5C141.7 129.5 143.3 128.3 143.7 127.9C144.1 127.4 142.8 127.6 141.9 127.7C143.3 127.3 144.6 127.1 144.6 127.2L146 128.2Z" fill="#DFEFEF"></path><path d="M151.2 133.9C150.9 134 150.4 134.2 149.9 134.3C148.4 134.6 146.3 134.6 145.8 133.4C145.2 131.8 145.8 128 145.8 128L147.1 127.9C147.1 127.9 147.5 128.1 148 128.3C148.9 128.8 150.2 129.6 150.9 130.5C152.3 132.4 152.4 133.4 151.2 133.9Z" fill="#FFFFFB"></path><path d="M149.9 134.3C148.4 134.6 146.3 134.6 145.8 133.4C145.2 131.8 145.8 128 145.8 128L147.1 127.9C147.1 127.9 147.5 128.1 148 128.3C147.6 128.3 148.7 129.8 149.2 130.8C149.1 130.6 147.9 128.9 147.1 128.7C146.3 128.5 146.2 131 146.4 132C146.6 133.3 147.5 134.6 149.9 134.3Z" fill="#DFEFEF"></path><path d="M144.1 126.9C144.1 126.9 144.9 125.7 146.4 126.5C148 127.4 147.5 128.5 147.5 128.5C147.2 129.1 144.3 128.5 144.1 126.9Z" fill="#F4DD69"></path><path d="M162.1 134C161.8 134.2 160.5 134.2 160.5 134.2L158.9 133.3C158.9 132.8 158.3 131.6 158.2 131.2C158.2 130.9 158.5 130.7 159 130.7C159.5 130.7 160.1 130.8 160.8 131.4C161.7 132 162.1 132.7 162.2 133.2C162.3 133.6 162.2 133.9 162.1 134Z" fill="#FFFFFB"></path><path d="M162.1 134C161.8 134.2 160.5 134.2 160.5 134.2L158.9 133.3C158.9 132.8 158.3 131.6 158.2 131.2C158.2 130.9 158.5 130.7 159 130.7C158.7 130.8 158.9 131.6 159.2 132.3C159.5 133 159.9 133.3 160.1 133C160.3 132.7 160.7 131.9 160.7 131.9C160.7 131.9 160.5 132.6 160.4 133C160.3 133.4 160.6 133.6 161.2 133.8C161.8 133.9 162.5 133.9 162.3 133.3C162.3 133.6 162.2 133.9 162.1 134Z" fill="#DFEFEF"></path><path d="M162.4 137.3C161.4 137.1 159.9 135.3 159.7 134.8C159.5 134.3 159.8 133.9 159.8 133.9C159.8 133.9 160 133.9 160.4 133.9C160.8 134 161.3 134.1 161.9 134.4C163.1 135 163.3 135.3 163.5 136C163.5 136.1 163.5 136.3 163.5 136.4C163.5 136.4 163.5 136.4 163.5 136.5C163.4 136.9 163.1 137.4 162.4 137.3Z" fill="#FFFFFB"></path><path d="M162.4 137.3C161.4 137.1 159.9 135.3 159.7 134.8C159.5 134.3 159.8 133.9 159.8 133.9C159.8 133.9 160 133.9 160.4 133.9C160.3 133.9 160.3 134.2 160.9 134.4C161.5 134.7 162.3 135.2 162.5 135.6C162.4 135.5 161.7 134.8 161 134.7C160.3 134.5 161.8 136.6 162.5 136.8C163.2 137 163.5 136.7 163.5 136.4C163.4 136.9 163.1 137.4 162.4 137.3Z" fill="#DFEFEF"></path><path d="M159.1 133.3L158.8 133.7C158.8 133.7 155.2 133.4 154.9 133.2C154.6 133 154.3 132.4 154.5 132C154.6 131.8 154.7 131.6 155 131.4C155.4 131 156.1 130.7 157 131C158.4 131.4 159 133.3 159.1 133.3Z" fill="#FFFFFB"></path><path d="M159 133.4L158.7 133.8C158.7 133.8 155.1 133.5 154.8 133.3C154.5 133.1 154.2 132.5 154.4 132.1C154.5 131.9 154.6 131.7 154.9 131.5C154.6 132.2 155.1 132.7 156.1 133C157.1 133.3 157.9 133.4 158.3 133.3C158.7 133.3 157 132 157 132C157 132 158.3 132.7 158.7 133.1C158.9 133.4 159 133.4 159 133.4Z" fill="#DFEFEF"></path><path d="M159.3 134.7C159.3 134.7 158.2 136.1 156.9 136.7C155.7 137.3 154.4 136.5 153.9 135.7C153.9 135.7 153.9 135.7 153.9 135.6C153.4 134.8 153.6 134 155 133.6C155.6 133.4 156.4 133.4 157.1 133.4C158 133.5 158.7 133.7 158.8 133.7L159.3 134.7Z" fill="#FFFFFB"></path><path d="M159.3 134.7C159.3 134.7 158.2 136.1 156.9 136.7C155.7 137.3 154.4 136.5 153.9 135.7C154.2 136 155.5 136.8 156.1 136.6C156.7 136.4 159.1 134.6 158.5 134.4C157.9 134.2 156 134.9 156 134.9C156.6 134.5 157.8 134.2 158.1 134C158.4 133.8 157.7 133.6 157.1 133.5C158 133.6 158.7 133.8 158.8 133.8L159.3 134.7Z" fill="#DFEFEF"></path><path d="M161 139C160.8 139 160.5 139 160.2 138.9C159.3 138.7 158.1 138.2 158.1 137.5C158.1 136.5 159.3 134.5 159.3 134.5L160 134.8C160 134.8 160.2 135 160.4 135.3C160.8 135.8 161.4 136.5 161.6 137.2C161.9 138.4 161.8 139 161 139Z" fill="#FFFFFB"></path><path d="M160.2 139C159.3 138.8 158.1 138.4 158.1 137.6C158.1 136.6 159.3 134.6 159.3 134.6L160 134.9C160 134.9 160.2 135.1 160.4 135.4C160.2 135.3 160.5 136.4 160.5 137.1C160.5 137 160.2 135.8 159.8 135.5C159.4 135.2 158.8 136.6 158.7 137.2C158.5 137.7 158.8 138.6 160.2 139Z" fill="#DFEFEF"></path><path d="M158.5 133.5C158.5 133.5 159.2 133 159.9 133.8C160.6 134.6 160.1 135.2 160.1 135.2C159.8 135.4 158.3 134.5 158.5 133.5Z" fill="#F4DD69"></path><path d="M176.3 134.3C176.1 134.5 174.7 134.8 174.7 134.8L172.9 134.2C172.8 133.7 172 132.7 171.9 132.3C171.8 132 172.1 131.7 172.5 131.6C172.9 131.5 173.6 131.5 174.4 131.9C175.4 132.4 175.9 132.9 176.1 133.4C176.4 133.9 176.4 134.2 176.3 134.3Z" fill="#FFFFFB"></path><path d="M176.3 134.3C176.1 134.5 174.7 134.8 174.7 134.8L172.9 134.2C172.8 133.7 172 132.7 171.9 132.3C171.8 132 172.1 131.7 172.5 131.6C172.2 131.7 172.6 132.5 173 133.1C173.4 133.7 173.9 134 174 133.6C174.1 133.3 174.4 132.4 174.4 132.4C174.4 132.4 174.4 133.1 174.3 133.5C174.2 133.9 174.6 134.1 175.2 134.1C175.8 134.1 176.5 134 176.2 133.4C176.4 133.9 176.4 134.2 176.3 134.3Z" fill="#DFEFEF"></path><path d="M177.2 137.5C176.2 137.5 174.4 136 174.1 135.6C173.8 135.1 174 134.7 174 134.7C174 134.7 174.2 134.6 174.6 134.6C175 134.6 175.5 134.6 176.2 134.8C177.5 135.1 177.7 135.5 178 136.1C178 136.2 178.1 136.3 178.1 136.5C178.1 136.5 178.1 136.5 178.1 136.6C178.1 137 177.9 137.5 177.2 137.5Z" fill="#FFFFFB"></path><path d="M177.2 137.5C176.2 137.5 174.4 136 174.1 135.6C173.8 135.1 174 134.7 174 134.7C174 134.7 174.2 134.6 174.6 134.6C174.5 134.6 174.5 134.9 175.2 135C175.9 135.1 176.7 135.5 177 135.9C176.9 135.8 176 135.3 175.3 135.3C174.6 135.3 176.4 137 177.2 137.1C177.9 137.2 178.2 136.8 178.2 136.5C178.1 137 177.9 137.5 177.2 137.5Z" fill="#DFEFEF"></path><path d="M173.1 134.2L172.9 134.7C172.9 134.7 169.3 135 168.9 134.9C168.5 134.8 168.2 134.2 168.3 133.8C168.3 133.6 168.5 133.4 168.7 133.1C169.1 132.7 169.7 132.2 170.6 132.3C172.2 132.5 173.1 134.2 173.1 134.2Z" fill="#FFFFFB"></path><path d="M173.1 134.3L172.9 134.7C172.9 134.7 169.3 135 168.9 134.9C168.5 134.8 168.2 134.2 168.3 133.8C168.3 133.6 168.5 133.4 168.7 133.1C168.5 133.8 169.1 134.3 170.2 134.4C171.3 134.5 172 134.4 172.4 134.3C172.8 134.2 170.9 133.3 170.9 133.3C170.9 133.3 172.3 133.7 172.7 134.1C173 134.3 173.1 134.3 173.1 134.3Z" fill="#DFEFEF"></path><path d="M173.6 135.5C173.6 135.5 172.7 137.1 171.7 137.9C170.7 138.7 169.2 138.1 168.5 137.4C167.9 136.7 167.9 135.9 169.2 135.2C169.8 134.9 170.5 134.7 171.2 134.7C172.1 134.6 172.8 134.7 172.9 134.7L173.6 135.5Z" fill="#FFFFFB"></path><path d="M173.6 135.5C173.6 135.5 172.7 137.1 171.7 137.9C170.7 138.7 169.2 138.1 168.5 137.4C168.8 137.7 170.3 138.2 170.8 137.9C171.4 137.6 173.4 135.4 172.7 135.3C172.1 135.2 170.3 136.2 170.3 136.2C170.8 135.7 171.9 135.2 172.2 134.9C172.5 134.6 171.7 134.6 171.1 134.6C172 134.5 172.7 134.6 172.8 134.6L173.6 135.5Z" fill="#DFEFEF"></path><path d="M176.1 139.5C175.9 139.5 175.6 139.6 175.3 139.6C174.4 139.6 173.1 139.3 173 138.6C172.8 137.6 173.6 135.4 173.6 135.4L174.4 135.5C174.4 135.5 174.6 135.6 174.9 135.9C175.4 136.3 176.1 136.9 176.4 137.6C176.9 138.7 176.8 139.3 176.1 139.5Z" fill="#FFFFFB"></path><path d="M175.2 139.6C174.3 139.6 173 139.3 172.9 138.6C172.7 137.6 173.5 135.4 173.5 135.4L174.3 135.5C174.3 135.5 174.5 135.6 174.8 135.9C174.6 135.8 175 136.9 175.2 137.5C175.1 137.4 174.6 136.2 174.2 136C173.7 135.8 173.4 137.2 173.4 137.9C173.4 138.6 173.8 139.4 175.2 139.6Z" fill="#DFEFEF"></path><path d="M172.6 134.5C172.6 134.5 173.2 133.9 174 134.5C174.8 135.2 174.4 135.8 174.4 135.8C174.3 136.2 172.6 135.5 172.6 134.5Z" fill="#F4DD69"></path><path d="M123.5 130.7C123.8 131 125.5 131.4 125.5 131.4L127.8 130.7C127.9 130.1 129.1 128.8 129.2 128.2C129.3 127.9 129 127.5 128.4 127.3C127.8 127.1 127 127.2 125.9 127.7C124.6 128.2 123.9 129 123.6 129.6C123.4 130.2 123.4 130.6 123.5 130.7Z" fill="#FFFFFB"></path><path d="M123.5 130.7C123.8 131 125.5 131.4 125.5 131.4L127.8 130.7C127.9 130.1 129.1 128.8 129.2 128.2C129.3 127.9 129 127.5 128.4 127.3C128.8 127.5 128.3 128.5 127.7 129.3C127.1 130.1 126.5 130.4 126.4 130C126.3 129.5 126 128.4 126 128.4C126 128.4 126 129.3 126.1 129.8C126.2 130.4 125.6 130.6 124.9 130.6C124.1 130.6 123.3 130.3 123.6 129.6C123.4 130.2 123.4 130.6 123.5 130.7Z" fill="#DFEFEF"></path><path d="M122.2 134.7C123.5 134.8 125.9 132.9 126.4 132.3C126.8 131.7 126.5 131.1 126.5 131.1C126.5 131.1 126.2 131 125.8 131C125.3 131 124.6 131 123.7 131.2C122 131.6 121.7 132 121.2 132.8C121.1 132.9 121.1 133.1 121.1 133.3V133.4C121 134 121.3 134.7 122.2 134.7Z" fill="#FFFFFB"></path><path d="M122.2 134.7C123.5 134.8 125.9 132.9 126.4 132.3C126.8 131.7 126.5 131.1 126.5 131.1C126.5 131.1 126.2 131 125.8 131C125.9 131 125.9 131.4 125.1 131.6C124.2 131.8 123.2 132.2 122.7 132.7C122.8 132.6 124 132 124.9 132C125.8 132 123.4 134.2 122.4 134.2C121.5 134.3 121.2 133.7 121.2 133.4C121 134 121.3 134.7 122.2 134.7Z" fill="#DFEFEF"></path><path d="M127.6 130.7L127.8 131.6C127.8 131.6 132.6 132 133.1 131.8C133.6 131.6 134 130.9 134 130.4C134 130.2 133.8 129.8 133.6 129.5C133.2 128.9 132.4 128.3 131.1 128.4C128.9 128.5 127.6 130.7 127.6 130.7Z" fill="#FFFFFB"></path><path d="M127.6 130.8L127.7 131.6C127.7 131.6 132.5 132 133 131.8C133.5 131.6 133.9 130.9 133.9 130.4C133.9 130.2 133.7 129.8 133.5 129.5C133.8 130.5 132.9 131 131.5 131.1C130.1 131.2 129.1 131.1 128.6 130.9C128.1 130.7 130.6 129.7 130.6 129.7C130.6 129.7 128.7 130.2 128.2 130.6C127.8 130.8 127.7 130.8 127.6 130.8Z" fill="#DFEFEF"></path><path d="M126.8 132.4C126.8 132.4 127.7 134.2 128.8 135.1C129.9 136 131.5 135.4 132.2 134.7C132.9 134 132.9 133.1 131.5 132.3C130.9 131.9 130.1 131.7 129.3 131.6C128.3 131.5 127.5 131.5 127.5 131.5L126.8 132.4Z" fill="#FFFFFB"></path><path d="M126.8 132.4C126.8 132.4 127.7 134.2 128.8 135.1C129.9 136 131.5 135.4 132.2 134.7C131.8 135 130.2 135.5 129.6 135.2C129 134.8 126.9 132.4 127.6 132.3C128.3 132.2 130.2 133.4 130.2 133.4C129.7 132.8 128.5 132.2 128.2 132C127.9 131.8 128.7 131.7 129.4 131.7C128.4 131.6 127.6 131.6 127.6 131.6L126.8 132.4Z" fill="#DFEFEF"></path><path d="M123.5 137.4C123.8 137.5 124.1 137.5 124.6 137.5C125.8 137.5 127.4 137.3 127.7 136.3C128 135 127 132.1 127 132.1L126 132.2C126 132.2 125.7 132.4 125.3 132.7C124.7 133.2 123.7 134 123.3 134.8C122.5 136.4 122.5 137.1 123.5 137.4Z" fill="#FFFFFB"></path><path d="M124.6 137.6C125.8 137.6 127.4 137.4 127.7 136.4C128 135.1 127 132.2 127 132.2L126 132.3C126 132.3 125.7 132.5 125.3 132.8C125.6 132.7 124.9 134 124.7 134.9C124.8 134.7 125.5 133.3 126.1 133C126.7 132.7 127.1 134.7 127 135.5C127 136.4 126.4 137.5 124.6 137.6Z" fill="#DFEFEF"></path><path d="M128.2 131C128.2 131 127.4 130.2 126.4 131C125.3 131.9 125.8 132.7 125.8 132.7C126 133.2 128.2 132.3 128.2 131Z" fill="#F4DD69"></path><path d="M131.3 137.5C131.5 137.7 132.6 138 132.6 138L134.1 137.6C134.2 137.2 134.9 136.3 135 136C135.1 135.8 134.9 135.5 134.5 135.4C134.1 135.3 133.6 135.3 132.9 135.6C132.1 136 131.6 136.4 131.4 136.8C131.2 137.2 131.2 137.4 131.3 137.5Z" fill="#FFFFFB"></path><path d="M131.3 137.5C131.5 137.7 132.6 138 132.6 138L134.1 137.6C134.2 137.2 134.9 136.3 135 136C135.1 135.8 134.9 135.5 134.5 135.4C134.7 135.5 134.4 136.2 134 136.7C133.6 137.2 133.2 137.4 133.2 137.1C133.1 136.8 132.9 136.1 132.9 136.1C132.9 136.1 132.9 136.7 133 137C133 137.4 132.7 137.5 132.2 137.5C131.7 137.5 131.1 137.3 131.4 136.8C131.2 137.2 131.2 137.4 131.3 137.5Z" fill="#DFEFEF"></path><path d="M130.4 140.2C131.2 140.2 132.8 139 133.1 138.6C133.4 138.2 133.2 137.8 133.2 137.8C133.2 137.8 133 137.7 132.7 137.7C132.4 137.7 131.9 137.7 131.3 137.8C130.2 138.1 130 138.3 129.7 138.9C129.7 139 129.6 139.1 129.6 139.2C129.7 139.7 129.8 140.1 130.4 140.2Z" fill="#FFFFFB"></path><path d="M130.4 140.2C131.2 140.2 132.8 139 133.1 138.6C133.4 138.2 133.2 137.8 133.2 137.8C133.2 137.8 133 137.7 132.7 137.7C132.8 137.7 132.8 138 132.2 138.1C131.6 138.2 130.9 138.5 130.6 138.8C130.7 138.8 131.4 138.3 132 138.3C132.6 138.3 131 139.7 130.4 139.8C129.8 139.8 129.6 139.5 129.6 139.3C129.7 139.7 129.8 140.1 130.4 140.2Z" fill="#DFEFEF"></path><path d="M134 137.5L134.1 138.1C134.1 138.1 137.2 138.3 137.5 138.2C137.8 138.1 138.1 137.6 138.1 137.3C138.1 137.2 138 136.9 137.8 136.7C137.5 136.3 137 135.9 136.2 136C134.8 136.1 134 137.5 134 137.5Z" fill="#FFFFFB"></path><path d="M134 137.6L134.1 138.1C134.1 138.1 137.2 138.3 137.5 138.2C137.8 138.1 138.1 137.6 138.1 137.3C138.1 137.2 138 136.9 137.8 136.7C138 137.3 137.4 137.7 136.5 137.7C135.6 137.7 134.9 137.7 134.6 137.6C134.3 137.5 135.9 136.8 135.9 136.8C135.9 136.8 134.7 137.1 134.3 137.4C134.1 137.6 134 137.6 134 137.6Z" fill="#DFEFEF"></path><path d="M133.5 138.7C133.5 138.7 134.1 139.9 134.8 140.5C135.5 141.1 136.6 140.7 137 140.3C137.5 139.8 137.5 139.3 136.6 138.7C136.2 138.5 135.7 138.3 135.2 138.3C134.6 138.2 134 138.2 134 138.3L133.5 138.7Z" fill="#FFFFFB"></path><path d="M133.5 138.7C133.5 138.7 134.1 139.9 134.8 140.5C135.5 141.1 136.6 140.7 137 140.3C136.8 140.5 135.7 140.8 135.3 140.6C134.9 140.4 133.6 138.8 134 138.7C134.5 138.6 135.7 139.4 135.7 139.4C135.4 139 134.6 138.6 134.4 138.5C134.2 138.3 134.7 138.3 135.2 138.3C134.6 138.2 134 138.2 134 138.3L133.5 138.7Z" fill="#DFEFEF"></path><path d="M131.3 141.9C131.5 141.9 131.7 142 132 142C132.8 142 133.9 141.8 134 141.2C134.2 140.4 133.6 138.5 133.6 138.5L132.9 138.6C132.9 138.6 132.7 138.7 132.5 138.9C132.1 139.2 131.5 139.7 131.2 140.3C130.7 141.2 130.7 141.7 131.3 141.9Z" fill="#FFFFFB"></path><path d="M132 142C132.8 142 133.9 141.8 134 141.2C134.2 140.4 133.6 138.5 133.6 138.5L132.9 138.6C132.9 138.6 132.7 138.7 132.5 138.9C132.7 138.8 132.3 139.7 132.1 140.3C132.2 140.2 132.6 139.2 133 139.1C133.4 138.9 133.6 140.2 133.6 140.7C133.6 141.2 133.2 141.9 132 142Z" fill="#DFEFEF"></path><path d="M134.4 137.8C134.4 137.8 133.9 137.3 133.2 137.8C132.5 138.4 132.8 138.9 132.8 138.9C132.9 139.1 134.4 138.6 134.4 137.8Z" fill="#F4DD69"></path><path d="M395.501 72.1C397.106 72.1 398.443 73.1 398.443 74.3V267.9C398.443 269.1 397.106 270.1 395.501 270.1C393.896 270.1 392.559 269.1 392.559 267.9V74.3C392.559 73.1 393.896 72.1 395.501 72.1Z" fill="#5E3918"></path><path d="M400.716 132.4C402.321 132.2 403.792 132.9 404.059 134.1L436.955 267.4C437.222 268.6 436.286 269.7 434.681 269.9C433.077 270.1 431.606 269.4 431.338 268.2L398.443 135C398.176 133.8 399.245 132.7 400.716 132.4Z" fill="#8B633C"></path><path d="M389.35 132.4C387.745 132.2 386.274 132.9 386.007 134.1L353.111 267.4C352.844 268.6 353.78 269.7 355.384 269.9C356.989 270.1 358.46 269.4 358.728 268.2L391.623 135C391.89 133.8 390.821 132.7 389.35 132.4Z" fill="#8B633C"></path><path d="M432.676 82.4H358.193V154.7H432.676V82.4Z" fill="#8B633C"></path><path d="M425.235 149.2V87.9003L365.595 87.9003V149.2H425.235Z" fill="#DFDFDF"></path><path d="M365.681 149.2L358.193 154.7H432.676L425.321 149.2H365.681Z" fill="#5E3918"></path><path d="M358.193 82.4L365.681 87.9H425.321L432.676 82.4H358.193Z" fill="#5E3918"></path><path d="M386.007 82.4L358.193 103.2V111.2L396.705 82.4H386.007Z" fill="#191F34"></path><path d="M418.635 198.4H372.234V202.4H418.635V198.4Z" fill="#8B633C"></path><path d="M103.4 128.7H70.5L71.9 103.8C71.9 103.3 72.3 102.9 72.8 102.9H103.9C104.4 102.9 104.9 103.3 104.8 103.9L103.4 128.7Z" fill="#F9E19D"></path><path d="M104.6 132.2H71L75.5 107.1C75.6 106.7 76 106.4 76.4 106.4H108.1C108.7 106.4 109.1 106.9 109 107.5L104.6 132.2Z" fill="#191F34"></path><path d="M50.2001 257.3H33.1001V194.9H58.4001L50.2001 257.3Z" fill="#27314C"></path><path d="M47.2001 37.1C41.4001 38.7 37.7001 45.4 38.0001 51.4C38.3001 57.4 42.0001 61 41.6001 63.7C41.2001 66.4 39.9001 68.1 39.9001 68.1C39.9001 68.1 48.7001 80.5 51.1001 81.6C51.1001 81.6 52.5001 79.7 53.8001 77.6C55.1001 75.6 56.4001 73 56.4001 73C56.4001 73 60.2001 74.7 62.7001 74.9C65.1001 75.2 67.8001 69.8 69.0001 66.3C69.0001 66.3 72.5001 65.9 72.5001 64.8C72.5001 63.6 71.0001 56.9 69.6001 49.6C68.1001 42.2 63.2001 32.6 47.2001 37.1Z" fill="#F0B89F"></path><path d="M56.4001 73C53.9001 71.9 49.5001 70.4 48.5001 67.2C47.5001 64 47.3001 62 47.3001 62C47.3001 62 47.1001 65.5 47.3001 68.4C47.5001 71.3 49.5001 72.2 51.8001 73.6C54.1001 75 55.2001 75.3 55.2001 75.3L56.4001 73Z" fill="#EF9778"></path><path d="M48.7 56.1C48.8 56.9 51.4 57.2 51.4 56.1C51.3 55 51.4 51.1 51.4 51.1C51.4 51.1 55.6 50.1 56.1 46.4C56.1 46.4 57.8 48.7 61.5 49.1C65.2 49.5 66 48.6 64.8 47.4C63.7 46.3 63.4 44.8 63.4 44.8C63.4 44.8 67.1 46.2 71.7 44.8C76.3 43.4 77.9 41.5 76.4 40.6C74.9 39.7 71.6 40.5 65.3 37.6C59 34.7 54.3 32.4 47.6 34.9C40.8 37.3 39.9 41.3 39.9 41.3C39.9 41.3 37.6 42.2 36.4 46.5C35.2 50.7 36.5 53.9 37.6 56.9C38.7 59.9 40.9 63.2 40 64.4C39.1 65.6 40.2 66.7 42.2 66.1C44.2 65.5 46.5 63.6 46.2 62.1C45.8 60.7 43.1 61.6 41.5 57.4C39.8 53.2 41.4 50.1 43.7 49.6C45.7 48.9 48.4 52.9 48.7 56.1Z" fill="#4C260A"></path><path d="M35.8001 73.7C32.1001 76.7 26.7001 82 24.8001 104.5C22.9001 127 20.1001 204.3 20.1001 204.3H68.7001C68.7001 204.3 67.4001 159.8 67.4001 142.6C67.4001 125.3 66.3001 100 53.5001 87.6C40.7001 75.2 35.8001 73.7 35.8001 73.7Z" fill="#191F34"></path><path d="M39.9 68.1C39.9 68.1 46.9 75.6 52.2 79.7C57.4 83.8 65.5 94.3 67.6 105.8C69.7 117.4 70.3 137.8 70.4 141.4C70.5 145 71 146.7 64.9 146.9C58.7 147.1 57.3 147.7 57.6 141C57.9 134.3 59.2 119.5 56.5 106.9C53.8 94.3 50.3 91 43.3 84.4C36.4 77.8 34.2 75.9 34.7 73.6C35.2 71.4 39 67 39.9 68.1Z" fill="#E4ECF2"></path><path d="M65 121.9C66.8 121.9 68.0001 120.8 70.4001 120.1C72.8001 119.4 75.2 119.3 77.2 118.3C79.2 117.3 83.3 114.4 83.1 117.2C82.9 120 78.4 122.5 78.2 123.3C78.1 124 83.2 123.9 87 122.6C90.8 121.3 95.6001 117.6 95.8001 119.4C95.9001 121.2 89.5 125.5 88 126.9C86.5 128.3 86.7 131.8 83.1 133.3C79.6 134.9 71.9 135.4 68.6 134.8C65.4 134.2 62.8 134.1 62.8 134.1L65 121.9Z" fill="#F0B89F"></path><path d="M64.4001 140.9C64.4001 140.9 56.0001 140.9 37.5001 138.9C20.1001 137 17.1001 135.2 16.7001 132.7C16.3001 130.2 18.5001 110.6 21.0001 96.1C23.5001 81.6 29.2001 76.5 33.3001 77.5C38.7001 78.8 37.0001 89.1 35.8001 101.6C34.6001 114.1 33.7001 119.7 35.8001 119.7C39.5001 119.9 64.9001 121 64.9001 121C65.7001 126.9 64.4001 140.9 64.4001 140.9Z" fill="#27314C"></path><path d="M33.1001 257.3C33.1001 261.1 33.1001 266 33.1001 268C33.1001 270 36.8001 269.9 46.5001 269.9C56.2001 269.9 65.5001 269.9 70.5001 269.9C75.4001 269.9 74.6001 267.1 62.9001 262.4C51.2001 257.7 50.2001 257.3 50.2001 257.3H33.1001V257.3Z" fill="#191F34"></path><path d="M64.4001 140.9C64.4001 140.9 56.0001 140.9 37.5001 138.9C20.1001 137 17.1001 135.2 16.7001 132.7C16.3001 130.2 18.5001 110.6 21.0001 96.1C23.5001 81.6 29.2001 76.5 33.3001 77.5C30.9001 77.6 27.6001 82.3 24.9001 103.1C22.3001 123.2 20.3001 131.2 25.7001 133.3C31.2001 135.4 64.4001 140.9 64.4001 140.9Z" fill="#212A42"></path><path d="M42.1001 204.2H33.1001V257.3H42.1001V204.2Z" fill="#212A42"></path><path d="M438.2 270H0V278.3H438.2V270Z" fill="#335063"></path><path d="M382.421 122.74H384.896V125.875H382.421V130H378.857V125.875H368.528V123.862L380.276 107.956H382.421V122.74ZM378.956 122.74V117.262C378.956 116.096 378.989 115.183 379.055 114.523C378.571 115.315 378.109 115.986 377.669 116.536L374.303 121.156C373.665 121.992 373.247 122.531 373.049 122.773C373.555 122.751 374.303 122.74 375.293 122.74H378.956ZM401.139 127.36C399.709 129.384 397.74 130.396 395.232 130.396C392.724 130.396 390.755 129.384 389.325 127.36C387.895 125.336 387.18 122.575 387.18 119.077C387.18 115.579 387.895 112.829 389.325 110.827C390.755 108.803 392.724 107.791 395.232 107.791C397.74 107.791 399.709 108.803 401.139 110.827C402.569 112.829 403.284 115.579 403.284 119.077C403.284 122.575 402.569 125.336 401.139 127.36ZM392.13 124.885C392.856 126.293 393.89 126.997 395.232 126.997C396.574 126.997 397.597 126.293 398.301 124.885C399.027 123.455 399.39 121.519 399.39 119.077C399.39 116.635 399.027 114.71 398.301 113.302C397.597 111.872 396.574 111.157 395.232 111.157C393.89 111.157 392.856 111.872 392.13 113.302C391.426 114.71 391.074 116.635 391.074 119.077C391.074 121.519 391.426 123.455 392.13 124.885ZM419.127 122.74H421.602V125.875H419.127V130H415.563V125.875H405.234V123.862L416.982 107.956H419.127V122.74ZM415.662 122.74V117.262C415.662 116.096 415.695 115.183 415.761 114.523C415.277 115.315 414.815 115.986 414.375 116.536L411.009 121.156C410.371 121.992 409.953 122.531 409.755 122.773C410.261 122.751 411.009 122.74 411.999 122.74H415.662Z" fill="#333333"></path></g><defs><clipPath id="clip0"><rect width="438.2" height="278.2" fill="white"></rect></clipPath></defs></svg> 