<?xml version="1.0" encoding="UTF-8"?> <svg xmlns="http://www.w3.org/2000/svg" width="233" height="251" viewBox="0 0 233 251" fill="none"><g clip-path="url(#clip0)"><path d="M217.1 88.225L198.035 50.6761C197.103 48.8396 194.855 48.1062 193.016 49.0368C191.176 49.9675 190.441 52.2119 191.374 54.0483L209.855 90.4463L179.31 243.545L73.1767 243.539L42.6358 90.4463L84.7758 7.45501H167.715L185.441 42.3612C186.373 44.1977 188.619 44.9292 190.459 44.0005C192.298 43.0679 193.033 40.8254 192.101 38.989L173.339 2.04137C172.702 0.788971 171.415 0 170.009 0H82.4836C81.0757 0 79.7886 0.788971 79.1518 2.04137L35.3909 88.225C35.013 88.9699 34.896 89.8201 35.061 90.6378L66.4516 247.995C66.7988 249.738 68.3314 250.994 70.1134 250.994L182.374 251C184.156 251 185.688 249.744 186.035 248.001L217.432 90.6397C217.595 89.8201 217.478 88.9699 217.1 88.225Z" fill="#CEAC56"></path><path d="M82.449 207.319C80.4273 207.722 79.1133 209.684 79.5161 211.705L82.7904 228.114C83.1376 229.859 84.6721 231.113 86.4522 231.113L166.035 231.119C167.817 231.119 169.349 229.862 169.696 228.118L196.556 93.495C196.719 92.6773 196.602 91.827 196.225 91.0821L161.109 21.9227C160.474 20.6703 159.185 19.8813 157.779 19.8813H94.7156C93.3077 19.8813 92.0206 20.6703 91.3857 21.9227L56.2661 91.084C55.8882 91.829 55.7712 92.6773 55.9362 93.4969L77.0992 199.591C77.5021 201.609 79.4682 202.921 81.4918 202.519C83.5136 202.116 84.8256 200.154 84.4247 198.133L63.511 93.3054L97.0078 27.3363H155.485L188.98 93.3035L162.971 223.662L89.5155 223.658L86.8397 210.247C86.4368 208.229 84.4727 206.917 82.449 207.319Z" fill="#CEAC56"></path><path d="M138.5 58.6673H113.997C111.935 58.6673 110.262 60.3371 110.262 62.3957V87.1641H87.3173C85.2553 87.1641 83.5826 88.8339 83.5826 90.8925V115.354C83.5826 117.413 85.2553 119.083 87.3173 119.083H110.262V180.307C110.262 182.365 111.935 184.035 113.997 184.035H138.5C140.562 184.035 142.234 182.365 142.234 180.307V119.083H165.17C167.232 119.083 168.904 117.413 168.904 115.354V90.8925C168.904 88.8339 167.232 87.1641 165.17 87.1641H142.234V62.3957C142.234 60.3371 140.562 58.6673 138.5 58.6673ZM161.435 94.6191V111.628H138.5C136.438 111.628 134.767 113.296 134.767 115.354V176.58H117.73V115.354C117.73 113.296 116.057 111.626 113.995 111.626H91.05V94.6191H113.995C116.057 94.6191 117.73 92.9511 117.73 90.8925V66.1223H134.767V90.8925C134.767 92.9511 136.438 94.6191 138.5 94.6191H161.435Z" fill="#CEAC56"></path></g><defs><clipPath id="clip0"><rect width="251.417" height="251" fill="white" transform="translate(0.614624)"></rect></clipPath></defs></svg> 