<?xml version="1.0" encoding="UTF-8"?> <svg xmlns="http://www.w3.org/2000/svg" width="70" height="68" viewBox="0 0 70 68" fill="none"><rect x="25" y="23" width="45" height="45" fill="#D4B669" fill-opacity="0.7"></rect><g clip-path="url(#clip0)"><path d="M19.8131 58.8103C19.3828 58.8103 18.9956 58.5131 18.8981 58.0753L13.1456 32.0794C13.0341 31.5741 13.3537 31.0734 13.8591 30.9619C14.3625 30.8522 14.8641 31.1691 14.9766 31.6753L20.7291 57.6712C20.8406 58.1765 20.5209 58.6772 20.0156 58.7887C19.9481 58.8037 19.8797 58.8103 19.8131 58.8103Z" fill="black"></path><path d="M14.0615 32.8154C13.5431 32.8154 13.124 32.3963 13.124 31.8779V19.6932C13.124 19.1747 13.5431 18.7557 14.0615 18.7557C14.58 18.7557 14.999 19.1747 14.999 19.6932V31.8779C14.999 32.3963 14.58 32.8154 14.0615 32.8154Z" fill="black"></path><path d="M14.0606 20.6306C13.8825 20.6306 13.7016 20.579 13.5413 20.4731C13.1109 20.1853 12.9938 19.604 13.2816 19.1728L18.9066 10.7325C19.1934 10.3012 19.7738 10.185 20.2069 10.4728C20.6372 10.7606 20.7544 11.3419 20.4666 11.7731L14.8416 20.2134C14.6616 20.4844 14.3634 20.6306 14.0606 20.6306Z" fill="black"></path><path d="M19.6865 12.1903C19.1681 12.1903 18.749 11.7713 18.749 11.2528V8.43939C18.749 7.92095 19.1681 7.50189 19.6865 7.50189C20.205 7.50189 20.624 7.92095 20.624 8.43939V11.2528C20.624 11.7713 20.205 12.1903 19.6865 12.1903Z" fill="black"></path><path d="M17.8116 6.56251C17.4356 6.56251 17.0803 6.3347 16.9359 5.96157C16.7503 5.47782 16.9922 4.93501 17.4741 4.74939L29.6616 0.0618853C30.1444 -0.122802 30.6872 0.117198 30.8737 0.60001C31.0594 1.08376 30.8175 1.62657 30.3356 1.8122L18.1481 6.4997C18.0375 6.54282 17.9231 6.56251 17.8116 6.56251Z" fill="black"></path><path d="M21.5588 60C20.3944 60 19.3659 59.2997 18.9403 58.216C18.7509 57.7341 18.9881 57.1903 19.47 57.001C19.9463 56.8135 20.4966 57.0488 20.685 57.5306C20.8275 57.8916 21.1706 58.125 21.5588 58.125C22.0772 58.125 22.4963 58.5441 22.4963 59.0625C22.4963 59.5809 22.0772 60 21.5588 60Z" fill="black"></path><path d="M40.1868 58.8103C40.1202 58.8103 40.0508 58.8028 39.9833 58.7888C39.478 58.6772 39.1583 58.1766 39.2699 57.6713L45.0224 31.6753C45.134 31.1691 45.6346 30.8531 46.1399 30.9619C46.6452 31.0735 46.9649 31.5741 46.8533 32.0794L41.1008 58.0753C41.0043 58.5131 40.6171 58.8103 40.1868 58.8103Z" fill="black"></path><path d="M45.9384 32.8154C45.4199 32.8154 45.0009 32.3963 45.0009 31.8779V19.6932C45.0009 19.1747 45.4199 18.7557 45.9384 18.7557C46.4568 18.7557 46.8759 19.1747 46.8759 19.6932V31.8779C46.8759 32.3963 46.4568 32.8154 45.9384 32.8154Z" fill="black"></path><path d="M45.9395 20.6306C45.6367 20.6306 45.3385 20.4844 45.1585 20.2134L39.5335 11.7731C39.2457 11.3419 39.3629 10.7606 39.7932 10.4728C40.2245 10.185 40.8067 10.3012 41.0935 10.7325L46.7185 19.1728C47.0063 19.604 46.8892 20.1853 46.4588 20.4731C46.2985 20.579 46.1176 20.6306 45.9395 20.6306Z" fill="black"></path><path d="M40.3134 12.1903C39.7949 12.1903 39.3759 11.7713 39.3759 11.2528V8.43939C39.3759 7.92095 39.7949 7.50189 40.3134 7.50189C40.8318 7.50189 41.2509 7.92095 41.2509 8.43939V11.2528C41.2509 11.7713 40.8318 12.1903 40.3134 12.1903Z" fill="black"></path><path d="M38.4413 60C37.9228 60 37.5038 59.581 37.5038 59.0625C37.5038 58.5441 37.9228 58.125 38.4413 58.125C38.8294 58.125 39.1725 57.8916 39.315 57.5307C39.5044 57.0478 40.05 56.8125 40.53 57.001C41.0129 57.1903 41.25 57.7341 41.0597 58.216C40.6341 59.2997 39.6057 60 38.4413 60Z" fill="black"></path><path d="M42.1865 9.37594H17.8115C17.2931 9.37594 16.874 8.95687 16.874 8.43844V5.625C16.874 5.10656 17.2931 4.6875 17.8115 4.6875C18.33 4.6875 18.749 5.10656 18.749 5.625V7.50094H41.249V5.625C41.249 5.10656 41.6681 4.6875 42.1865 4.6875C42.705 4.6875 43.124 5.10656 43.124 5.625V8.43844C43.124 8.95687 42.705 9.37594 42.1865 9.37594Z" fill="black"></path><path d="M38.4412 60H21.5587C21.0403 60 20.6212 59.5809 20.6212 59.0625C20.6212 58.5441 21.0403 58.125 21.5587 58.125H38.4412C38.9596 58.125 39.3787 58.5441 39.3787 59.0625C39.3787 59.5809 38.9596 60 38.4412 60Z" fill="black"></path><path d="M45.9384 20.6307H14.0615C13.5431 20.6307 13.124 20.2116 13.124 19.6932C13.124 19.1747 13.5431 18.7557 14.0615 18.7557H45.9384C46.4568 18.7557 46.8759 19.1747 46.8759 19.6932C46.8759 20.2116 46.4568 20.6307 45.9384 20.6307Z" fill="black"></path><path d="M45.9384 32.8153H14.0615C13.5431 32.8153 13.124 32.3962 13.124 31.8778C13.124 31.3594 13.5431 30.9403 14.0615 30.9403H45.9384C46.4568 30.9403 46.8759 31.3594 46.8759 31.8778C46.8759 32.3962 46.4568 32.8153 45.9384 32.8153Z" fill="black"></path><path d="M42.1866 6.56254C42.075 6.56254 41.9607 6.54285 41.85 6.50067L29.6625 1.81317C29.1797 1.62754 28.9388 1.08473 29.1244 0.600978C29.311 0.117228 29.851 -0.121834 30.3366 0.0628533L42.5241 4.75035C43.0069 4.93598 43.2478 5.47879 43.0622 5.96254C42.9178 6.33473 42.5625 6.56254 42.1866 6.56254Z" fill="black"></path><path d="M43.124 6.5625H16.874C16.3556 6.5625 15.9365 6.14344 15.9365 5.625C15.9365 5.10656 16.3556 4.6875 16.874 4.6875H43.124C43.6425 4.6875 44.0615 5.10656 44.0615 5.625C44.0615 6.14344 43.6425 6.5625 43.124 6.5625Z" fill="black"></path><path d="M39.374 25.3135H20.624C20.1056 25.3135 19.6865 24.8944 19.6865 24.376C19.6865 23.8575 20.1056 23.4385 20.624 23.4385H39.374C39.8925 23.4385 40.3115 23.8575 40.3115 24.376C40.3115 24.8944 39.8925 25.3135 39.374 25.3135Z" fill="black"></path><path d="M33.749 28.1259H26.249C25.7306 28.1259 25.3115 27.7069 25.3115 27.1884C25.3115 26.67 25.7306 26.2509 26.249 26.2509H33.749C34.2675 26.2509 34.6865 26.67 34.6865 27.1884C34.6865 27.7069 34.2675 28.1259 33.749 28.1259Z" fill="black"></path></g><defs><clipPath id="clip0"><rect width="60" height="60" fill="white"></rect></clipPath></defs></svg> 