<?xml version="1.0" encoding="UTF-8"?> <svg xmlns="http://www.w3.org/2000/svg" width="240" height="268" viewBox="0 0 240 268" fill="none"><g clip-path="url(#clip0)"><path d="M213.928 76.8497C211.723 70.099 205.296 65.2792 198.016 65.2792C191.022 65.2792 184.931 69.5634 182.46 75.8466H152.564V42.7651C158.847 40.2938 163.132 34.2032 163.132 27.2085C163.132 19.9291 158.312 13.5024 151.561 11.2973C149.169 4.61759 142.784 0 135.5 0C128.216 0 121.832 4.61759 119.439 11.2968C112.688 13.5018 107.868 19.9286 107.868 27.208C107.868 34.2026 112.152 40.2933 118.436 42.7645V51.8473C118.436 54.0439 120.216 55.8249 122.413 55.8249C124.61 55.8249 126.391 54.0444 126.391 51.8473V39.7671C126.391 37.831 124.997 36.1764 123.09 35.8477C118.88 35.1215 115.823 31.4879 115.823 27.208C115.823 22.9148 119.016 19.1881 123.25 18.5392C124.916 18.2835 126.24 17.0058 126.555 15.3501C127.37 11.065 131.131 7.9548 135.501 7.9548C139.87 7.9548 143.632 11.065 144.446 15.3501C144.761 17.0058 146.085 18.2835 147.751 18.5392C151.985 19.1881 155.178 22.9148 155.178 27.208C155.178 31.4879 152.122 35.1215 147.912 35.8477C146.004 36.1764 144.61 37.8315 144.61 39.7671V79.8243C144.61 82.0209 146.391 83.802 148.588 83.802H185.459C187.395 83.802 189.05 82.4083 189.378 80.5008C190.104 76.2907 193.738 73.2346 198.017 73.2346C202.311 73.2346 206.038 76.4273 206.687 80.6611C206.942 82.3268 208.22 83.6511 209.876 83.9661C214.161 84.7807 217.271 88.5424 217.271 92.9117C217.271 97.2805 214.161 101.043 209.876 101.857C208.22 102.172 206.942 103.496 206.687 105.162C206.038 109.396 202.311 112.589 198.017 112.589C193.738 112.589 190.104 109.533 189.378 105.323C189.049 103.415 187.394 102.021 185.459 102.021H148.588C146.391 102.021 144.61 103.802 144.61 105.999V158.646C144.61 160.843 146.391 162.624 148.588 162.624C150.785 162.624 152.566 160.843 152.566 158.646V109.976H182.461C184.933 116.26 191.023 120.544 198.018 120.544C205.298 120.544 211.724 115.724 213.93 108.973C220.608 106.58 225.227 100.195 225.227 92.9117C225.225 85.6275 220.606 79.2432 213.928 76.8497Z" fill="#CEAC56"></path><path d="M182.416 243.057H173.347V234.925C173.347 228.388 168.029 223.071 161.492 223.071H152.564V174.555C152.564 172.359 150.783 170.578 148.586 170.578C146.39 170.578 144.609 172.359 144.609 174.555V223.071H126.39V105.998C126.39 103.801 124.609 102.02 122.413 102.02H85.5418C83.6057 102.02 81.9516 103.414 81.6224 105.322C80.8962 109.532 77.2626 112.588 72.9832 112.588C68.6901 112.588 64.9628 109.395 64.3139 105.161C64.0582 103.496 62.7805 102.171 61.1248 101.856C56.8397 101.042 53.7295 97.28 53.7295 92.9107C53.7295 88.5413 56.8397 84.7791 61.1248 83.965C62.7805 83.6506 64.0582 82.3263 64.3139 80.6601C64.9628 76.4262 68.6901 73.2335 72.9832 73.2335C77.2631 73.2335 80.8962 76.2891 81.6224 80.4997C81.9511 82.4073 83.6057 83.8009 85.5418 83.8009H122.413C124.609 83.8009 126.39 82.0198 126.39 79.8233V67.7569C126.39 65.5603 124.609 63.7792 122.413 63.7792C120.216 63.7792 118.435 65.5603 118.435 67.7569V75.8461H88.5392C86.0679 69.5628 79.9773 65.2787 72.9827 65.2787C65.7027 65.2787 59.2765 70.098 57.071 76.8491C50.3928 79.2426 45.7742 85.627 45.7742 92.9107C45.7742 100.194 50.3928 106.579 57.071 108.972C59.276 115.723 65.7027 120.543 72.9827 120.543C79.9773 120.543 86.0679 116.258 88.5392 109.975H118.435V223.07H109.507C102.97 223.07 97.6521 228.388 97.6521 234.924V243.057H88.5826C82.0464 243.057 76.7285 248.375 76.7285 254.911V267.022C76.7285 269.218 78.5096 270.999 80.7062 270.999H190.293C192.489 270.999 194.271 269.218 194.271 267.022V254.911C194.271 248.375 188.953 243.057 182.416 243.057ZM186.316 263.045H84.6844V254.913C84.6844 252.762 86.4337 251.013 88.5837 251.013H118.326C120.523 251.013 122.304 249.232 122.304 247.036C122.304 244.839 120.523 243.058 118.326 243.058H105.608V234.925C105.608 232.775 107.357 231.026 109.507 231.026H161.492C163.642 231.026 165.392 232.775 165.392 234.925V243.058H134.236C132.04 243.058 130.258 244.839 130.258 247.036C130.258 249.232 132.04 251.013 134.236 251.013H182.416C184.566 251.013 186.315 252.763 186.315 254.913V263.045H186.316Z" fill="#CEAC56"></path></g><defs><clipPath id="clip0"><rect width="271" height="271" fill="white"></rect></clipPath></defs></svg> 