<?xml version="1.0" encoding="UTF-8"?> <svg xmlns="http://www.w3.org/2000/svg" width="150" height="146" viewBox="0 0 150 146" fill="none"><path d="M148.973 0.000104278L148.973 28.2029L142.295 28.2029L132.534 12.4425L106.849 12.4425L106.849 21.5669L117.637 25.9217C128.168 30.4148 136.216 37.3618 141.781 46.7628C147.26 56.2328 150 68.295 150 82.9494C150 100.369 143.065 115.092 129.195 127.12C115.325 139.147 97.2603 145.161 75 145.161C52.7398 145.161 34.6748 139.147 20.8048 127.12C6.9351 115.092 0.000178817 100.369 1.96097e-05 82.9494C0.000181621 68.2949 2.78271 56.2327 8.34762 46.7628C13.8272 37.3618 21.8324 30.4148 32.363 25.9217L43.1507 21.5669L43.1507 12.4425L17.4658 12.4425L7.7055 28.2028L1.02742 28.2028L1.02742 9.13441e-05L63.6987 9.6823e-05L63.6986 24.0554C49.6577 29.0323 39.6405 37.0507 33.6473 48.1107C27.6543 59.1705 24.6577 70.7834 24.6576 82.9494C24.6577 96.2212 28.7673 108.111 36.9863 118.618C45.2056 129.124 57.8768 134.378 75 134.378C92.1234 134.378 104.795 129.124 113.014 118.618C121.233 108.111 125.343 96.2212 125.342 82.9494C125.343 70.7834 122.346 59.1705 116.353 48.1107C110.36 37.0507 100.343 29.0323 86.3014 24.0554L86.3014 9.8799e-05L148.973 0.000104278" fill="#CEAC56"></path><path fill-rule="evenodd" clip-rule="evenodd" d="M106.428 102.822L75.0001 48.3867L43.5718 102.822H106.428ZM75.0002 96.7739C81.681 96.7739 87.097 91.358 87.097 84.6771C87.097 77.9962 81.681 72.5803 75.0002 72.5803C68.3193 72.5803 62.9034 77.9962 62.9034 84.6771C62.9034 91.358 68.3193 96.7739 75.0002 96.7739Z" fill="#CEAC56"></path></svg> 