<?xml version="1.0" encoding="UTF-8"?> <svg xmlns="http://www.w3.org/2000/svg" width="48" height="48" viewBox="0 0 48 48" fill="none"><g clip-path="url(#clip0)"><path d="M37.9351 29.7344C36.9524 28.7112 35.7672 28.1641 34.5109 28.1641C33.2649 28.1641 32.0694 28.701 31.0462 29.7242L27.8449 32.9154C27.5815 32.7736 27.3181 32.6419 27.0649 32.5102C26.7002 32.3278 26.3557 32.1556 26.0619 31.9732C23.0632 30.0687 20.3381 27.5866 17.7243 24.3752C16.458 22.7745 15.607 21.4272 14.989 20.0595C15.8197 19.2997 16.5897 18.5095 17.3394 17.7497C17.623 17.466 17.9067 17.1723 18.1903 16.8886C20.3178 14.7611 20.3178 12.0056 18.1903 9.87813L15.4247 7.11244C15.1106 6.79839 14.7864 6.47421 14.4825 6.15002C13.8747 5.52192 13.2364 4.87355 12.5779 4.26571C11.5952 3.29316 10.4201 2.77649 9.18412 2.77649C7.94817 2.77649 6.75275 3.29316 5.73968 4.26571C5.72954 4.27584 5.72955 4.27584 5.71941 4.28597L2.27497 7.76081C0.978233 9.05754 0.23869 10.6379 0.0765986 12.4716C-0.166539 15.4298 0.704704 18.1853 1.37333 19.9886C3.01451 24.4157 5.46615 28.5187 9.12334 32.9154C13.5606 38.2138 18.8995 42.3978 24.9982 45.3458C27.3283 46.4501 30.4384 47.7569 33.9132 47.9798C34.126 47.9899 34.3489 48.0001 34.5515 48.0001C36.8917 48.0001 38.857 47.1592 40.3969 45.4876C40.407 45.4674 40.4273 45.4573 40.4374 45.437C40.9642 44.7988 41.5721 44.2213 42.2103 43.6033C42.6459 43.188 43.0917 42.7523 43.5273 42.2965C44.5302 41.253 45.057 40.0373 45.057 38.7912C45.057 37.535 44.5201 36.3295 43.4969 35.3164L37.9351 29.7344ZM41.5619 40.402C41.5518 40.402 41.5518 40.4121 41.5619 40.402C41.1668 40.8275 40.7616 41.2125 40.326 41.638C39.6675 42.2661 38.9989 42.9246 38.3708 43.6641C37.3475 44.7582 36.142 45.2749 34.5616 45.2749C34.4096 45.2749 34.2475 45.2749 34.0956 45.2648C31.0868 45.0723 28.2907 43.8971 26.1936 42.8942C20.4596 40.1184 15.4247 36.1775 11.2407 31.1831C7.78608 27.0193 5.47628 23.1696 3.94654 19.0363C3.00438 16.5138 2.65993 14.5484 2.8119 12.6945C2.9132 11.5092 3.36909 10.5265 4.20994 9.68565L7.66451 6.23107C8.16092 5.76505 8.68772 5.51179 9.20438 5.51179C9.84262 5.51179 10.3593 5.89675 10.6835 6.22094C10.6936 6.23107 10.7037 6.2412 10.7139 6.25133C11.3318 6.82878 11.9194 7.42649 12.5374 8.06473C12.8514 8.38891 13.1756 8.7131 13.4998 9.04741L16.2655 11.8131C17.3394 12.887 17.3394 13.8798 16.2655 14.9536C15.9717 15.2474 15.6881 15.5412 15.3943 15.8249C14.5433 16.6961 13.7328 17.5066 12.8514 18.2968C12.8312 18.317 12.8109 18.3272 12.8008 18.3474C11.9296 19.2187 12.0916 20.0696 12.274 20.6471C12.2841 20.6775 12.2943 20.7079 12.3044 20.7383C13.0237 22.4808 14.0367 24.1219 15.5766 26.0772L15.5867 26.0873C18.3828 29.5317 21.3309 32.2164 24.5828 34.2729C24.9982 34.5363 25.4237 34.7491 25.8289 34.9517C26.1936 35.134 26.5381 35.3063 26.8319 35.4886C26.8724 35.5089 26.9129 35.5393 26.9534 35.5595C27.2979 35.7318 27.622 35.8128 27.9564 35.8128C28.7972 35.8128 29.324 35.286 29.4962 35.1138L32.9609 31.6491C33.3054 31.3046 33.8524 30.8893 34.4907 30.8893C35.1188 30.8893 35.6355 31.2844 35.9495 31.6288C35.9596 31.6389 35.9596 31.6389 35.9698 31.6491L41.5518 37.2311C42.5953 38.2644 42.5953 39.3282 41.5619 40.402Z" fill="white"></path><path d="M25.9403 11.4179C28.5946 11.8637 31.0057 13.1199 32.9305 15.0447C34.8554 16.9696 36.1015 19.3807 36.5573 22.0349C36.6688 22.7036 37.2462 23.1696 37.9047 23.1696C37.9858 23.1696 38.0567 23.1594 38.1377 23.1493C38.8874 23.0277 39.3838 22.3186 39.2622 21.5689C38.7152 18.3575 37.1956 15.4297 34.8756 13.1098C32.5557 10.7898 29.6279 9.2702 26.4165 8.72314C25.6668 8.60158 24.9678 9.09798 24.8361 9.83752C24.7044 10.5771 25.1907 11.2963 25.9403 11.4179Z" fill="white"></path><path d="M47.9443 21.1738C47.0426 15.8856 44.5505 11.0735 40.7211 7.24406C36.8917 3.41464 32.0796 0.922485 26.7913 0.0208505C26.0518 -0.110849 25.3528 0.395688 25.2211 1.13523C25.0995 1.8849 25.5959 2.58393 26.3456 2.71562C31.0665 3.51595 35.372 5.75484 38.7962 9.1689C42.2204 12.5931 44.4492 16.8986 45.2495 21.6196C45.3609 22.2882 45.9384 22.7542 46.5969 22.7542C46.6779 22.7542 46.7489 22.7441 46.8299 22.7339C47.5694 22.6225 48.076 21.9134 47.9443 21.1738Z" fill="white"></path></g><defs><clipPath id="clip0"><rect width="48" height="48" fill="white"></rect></clipPath></defs></svg> 