<?xml version="1.0" encoding="UTF-8"?> <svg xmlns="http://www.w3.org/2000/svg" width="40" height="40" viewBox="0 0 40 40" fill="none"><path d="M18.9965 0.00630873C15.7865 0.0450587 8.88528 0.572559 5.02528 4.11381C2.15403 6.95881 1.15153 11.1651 1.03403 16.3663C0.936535 21.5488 0.819035 31.2813 10.2003 33.9313V37.9676C10.2003 37.9676 10.1415 39.5826 11.209 39.9138C12.524 40.3301 13.2728 39.0876 14.5228 37.7526L16.854 35.1163C23.2728 35.6501 28.189 34.4201 28.7553 34.2376C30.0578 33.8213 37.394 32.8838 38.5928 23.1501C39.8228 13.0976 37.994 6.76381 34.6928 3.89881H34.6728C33.6765 2.98131 29.6728 0.0638087 20.7278 0.0313087C20.7278 0.0313087 20.064 -0.0124413 18.9965 0.00630873ZM19.1065 2.83256C20.0178 2.82631 20.5715 2.86506 20.5715 2.86506C28.1428 2.88506 31.7565 5.16381 32.609 5.93131C35.389 8.31381 36.8215 14.0238 35.7728 22.4163C34.7765 30.5538 28.8265 31.0688 27.7253 31.4201C27.2565 31.5701 22.9265 32.6376 17.4715 32.2863C17.4715 32.2863 13.409 37.1888 12.139 38.4513C11.9378 38.6726 11.7028 38.7376 11.5528 38.7051C11.3378 38.6526 11.2728 38.3863 11.2853 38.0213L11.324 31.3226C3.36779 29.1226 3.83653 20.8213 3.92153 16.4851C4.01903 12.1488 4.83278 8.60131 7.25528 6.19881C10.5165 3.25006 16.3765 2.85256 19.104 2.83256H19.1065ZM19.7065 7.16756C19.4328 7.16131 19.2053 7.38881 19.2053 7.66256C19.2053 7.94256 19.4328 8.16381 19.7065 8.16381C22.2128 8.11881 24.629 9.06881 26.4253 10.8138C28.2415 12.5776 29.1265 14.9476 29.1603 18.0463C29.1603 18.3201 29.3815 18.5476 29.6615 18.5476V18.5276C29.9353 18.5276 30.1628 18.3063 30.1628 18.0326C30.2865 15.0838 29.1928 12.2188 27.1415 10.0963C25.1628 8.16256 22.6553 7.16631 19.7065 7.16631V7.16756ZM13.1178 8.31381C12.7665 8.26131 12.4015 8.33381 12.0953 8.51506H12.069C11.3915 8.91256 10.7603 9.41381 10.1615 10.0838C9.70528 10.6113 9.45778 11.1451 9.39278 11.6588C9.35403 11.9651 9.38028 12.2713 9.47153 12.5638L9.50403 12.5838C10.0178 14.0938 10.689 15.5463 11.509 16.9138C12.564 18.8338 13.8653 20.6113 15.3765 22.2001L15.4215 22.2651L15.4928 22.3176L15.5378 22.3701L15.5903 22.4151C17.1853 23.9326 18.9628 25.2338 20.8903 26.3013C23.0903 27.4988 24.4253 28.0651 25.2265 28.3001V28.3126C25.4615 28.3838 25.6753 28.4163 25.8903 28.4163C26.574 28.3638 27.219 28.0913 27.7265 27.6288C28.3778 27.0426 28.8915 26.3988 29.2765 25.7151V25.7026C29.6603 24.9801 29.5303 24.2963 28.9765 23.8338C27.8703 22.8638 26.6653 22.0038 25.3953 21.2626C24.5428 20.8001 23.6765 21.0801 23.3253 21.5488L22.5765 22.4926C22.1928 22.9613 21.4953 22.8963 21.4953 22.8963L21.4753 22.9088C16.274 21.5801 14.8865 16.3138 14.8865 16.3138C14.8865 16.3138 14.8215 15.5976 15.3028 15.2326L16.2403 14.4776C16.689 14.1126 17.0015 13.2476 16.5203 12.3938C15.784 11.1176 14.9253 9.92006 13.9553 8.81256C13.7465 8.55256 13.4478 8.37631 13.1153 8.31131L13.1178 8.31381ZM20.5715 9.79881C19.9078 9.79881 19.9078 10.8013 20.5778 10.8013C22.244 10.8276 23.8328 11.5176 24.9915 12.7151C26.0465 13.8801 26.5928 15.4301 26.489 16.9988C26.4953 17.2726 26.7165 17.4938 26.9903 17.4938L27.0103 17.5201C27.284 17.5201 27.5115 17.2926 27.5115 17.0188C27.5565 15.0326 26.939 13.3663 25.7278 12.0313C24.5103 10.6963 22.8115 9.94756 20.6428 9.79881C20.6165 9.79881 20.5978 9.79881 20.5715 9.79881ZM21.3928 12.4938C20.709 12.4738 20.6828 13.4963 21.3603 13.5163C23.0078 13.6013 23.8078 14.4338 23.9128 16.1463C23.919 16.4201 24.1403 16.6351 24.4078 16.6351H24.4278C24.7078 16.6226 24.929 16.3813 24.909 16.1013C24.7915 13.8688 23.574 12.6113 21.4128 12.4951C21.4065 12.4951 21.4003 12.4951 21.3928 12.4951V12.4938Z" fill="#715EF2"></path></svg> 