<?xml version="1.0" encoding="UTF-8"?> <svg xmlns="http://www.w3.org/2000/svg" width="41" height="40" viewBox="0 0 41 40" fill="none"><path fill-rule="evenodd" clip-rule="evenodd" d="M12.3851 36.0587L2.87848 39.084L0 40L4.04379 28.056C3.36519 26.8086 2.82766 25.4872 2.44469 24.1188C1.98012 22.4583 1.74571 20.7423 1.74571 19.0182C1.74571 13.9447 3.76427 9.13491 7.36273 5.56542C10.9729 1.9843 15.8187 0 20.9027 0C25.9851 0 30.8283 1.98668 34.4354 5.56831C38.0324 9.13997 40.0484 13.9509 40.0484 19.0243C40.0484 24.0968 38.0302 28.9061 34.4328 32.4754C30.824 36.0559 25.9797 38.0409 20.897 38.0409C19.2845 38.0409 17.6779 37.8418 16.1155 37.4421C14.8269 37.1125 13.5764 36.648 12.3851 36.0586L12.3851 36.0587Z" fill="#EEEEEE"></path><path fill-rule="evenodd" clip-rule="evenodd" d="M38.5198 19.0243C38.5198 14.1931 36.5472 9.81887 33.358 6.6521C30.1692 3.48578 25.765 1.52734 20.9015 1.52734C16.0337 1.52734 11.6274 3.48511 8.43708 6.64973C5.24536 9.81576 3.27175 14.1892 3.27175 19.0182C3.27175 20.6392 3.49594 22.2122 3.91426 23.7072C4.32993 25.1926 4.93801 26.599 5.70881 27.897L2.65543 36.9156L2.41406 37.6286L3.13125 37.4004L12.5226 34.4117C13.7659 35.0809 15.0962 35.6052 16.4928 35.9625C17.8998 36.3224 19.3745 36.5136 20.8958 36.5136C25.7614 36.5136 30.1663 34.5557 33.3558 31.3912C36.5466 28.2254 38.5198 23.8524 38.5198 19.0243L38.5198 19.0243Z" fill="#54CC61"></path><path fill-rule="evenodd" clip-rule="evenodd" d="M18.0376 14.2481C17.9602 14.0923 17.5136 13.0137 17.102 12.0195C16.8389 11.384 16.588 10.7779 16.5387 10.6607C16.0752 9.55543 15.5628 9.58875 15.1699 9.61428C15.1441 9.61595 15.1192 9.61758 15.086 9.61758C14.9489 9.61758 14.8141 9.60905 14.6744 9.60021C14.4998 9.58912 14.3186 9.57764 14.1473 9.57764C13.9196 9.57764 13.6095 9.62488 13.2829 9.77774C13.0407 9.8911 12.7908 10.0618 12.5621 10.3131C12.5288 10.3491 12.5036 10.3755 12.4763 10.4042C11.9322 10.9761 10.7461 12.2229 10.7461 14.6174C10.7461 17.1291 12.5574 19.5177 12.8235 19.8685L12.8226 19.8692L12.825 19.8725L12.828 19.8755C12.8385 19.8889 12.8769 19.9451 12.9337 20.0283C13.6026 21.0066 16.6778 25.5041 21.3527 27.33C25.5937 28.9849 26.3611 28.7992 27.0465 28.6333C27.1633 28.6051 27.2772 28.5775 27.4004 28.5661C27.9555 28.5139 28.8636 28.1339 29.6278 27.6003C30.2617 27.1576 30.8151 26.5982 31.0269 26.0092C31.2159 25.4825 31.3228 24.9932 31.3724 24.5905C31.4444 24.0054 31.3874 23.5451 31.2809 23.3673L31.2794 23.3658C31.1176 23.0992 30.8376 22.967 30.4177 22.7687C30.3436 22.7338 30.2645 22.6964 30.1884 22.6596L30.1887 22.6591C29.8991 22.5119 28.8973 22.022 28.0409 21.6172C27.4876 21.3556 26.9959 21.1309 26.8011 21.061C26.5272 20.9626 26.2886 20.8883 26.0328 20.9171C25.7427 20.9498 25.4897 21.0992 25.2551 21.4545L25.2544 21.454C25.1366 21.631 24.9291 21.8963 24.7023 22.1741C24.343 22.6142 23.9145 23.1083 23.7318 23.3158V23.3173C23.6538 23.4061 23.5866 23.4545 23.5207 23.4624C23.4291 23.4735 23.3033 23.436 23.1292 23.3504C23.0178 23.2947 22.9093 23.2479 22.7754 23.1901C22.0982 22.8979 20.7792 22.3288 19.2759 20.9978C18.7381 20.5218 18.2649 20.0015 17.8696 19.5133C17.2299 18.7232 16.7976 18.0192 16.6259 17.7227C16.4903 17.4902 16.6409 17.3394 16.78 17.2003L16.7793 17.1995C16.9331 17.0459 17.1072 16.8367 17.2819 16.6268C17.3614 16.5311 17.441 16.4355 17.5378 16.324L17.5393 16.3225C17.7749 16.0485 17.8725 15.849 18.0044 15.5798C18.0273 15.5329 18.0513 15.4838 18.0755 15.4355L18.077 15.4341C18.1929 15.2005 18.2226 14.9782 18.201 14.7701C18.181 14.5763 18.1161 14.4033 18.037 14.2484L18.0376 14.2481Z" fill="#FFFFFE"></path></svg> 